<svg width="246" height="48" viewBox="0 0 246 48" fill="none" xmlns="http://www.w3.org/2000/svg">
<path d="M15.0266 0.545454V18H11.8391L4.24538 7.0142H4.11754V18H0.427202V0.545454H3.66584L11.1999 11.5227H11.3533V0.545454H15.0266ZM23.9734 18.2557C22.6268 18.2557 21.4677 17.983 20.4961 17.4375C19.5302 16.8864 18.7859 16.108 18.2631 15.1023C17.7404 14.0909 17.479 12.8949 17.479 11.5142C17.479 10.1676 17.7404 8.9858 18.2631 7.96875C18.7859 6.9517 19.5217 6.15909 20.4705 5.59091C21.4251 5.02273 22.5444 4.73864 23.8285 4.73864C24.6921 4.73864 25.4961 4.87784 26.2404 5.15625C26.9904 5.42898 27.6438 5.84091 28.2006 6.39205C28.7631 6.94318 29.2006 7.63636 29.5131 8.47159C29.8256 9.30114 29.9819 10.2727 29.9819 11.3864V12.3835H18.9279V10.1335H26.5643C26.5643 9.6108 26.4506 9.14773 26.2234 8.74432C25.9961 8.34091 25.6808 8.02557 25.2773 7.7983C24.8796 7.56534 24.4165 7.44886 23.8881 7.44886C23.337 7.44886 22.8484 7.5767 22.4222 7.83239C22.0018 8.08239 21.6722 8.42045 21.4336 8.84659C21.195 9.26705 21.0728 9.7358 21.0671 10.2528V12.392C21.0671 13.0398 21.1864 13.5994 21.4251 14.071C21.6694 14.5426 22.0131 14.9062 22.4563 15.1619C22.8995 15.4176 23.4251 15.5455 24.033 15.5455C24.4364 15.5455 24.8058 15.4886 25.141 15.375C25.4762 15.2614 25.7631 15.0909 26.0018 14.8636C26.2404 14.6364 26.4222 14.358 26.5472 14.0284L29.9052 14.25C29.7347 15.0568 29.3853 15.7614 28.8569 16.3636C28.3342 16.9602 27.658 17.4261 26.8285 17.7614C26.0046 18.0909 25.0529 18.2557 23.9734 18.2557ZM35.9819 10.4318V18H32.3512V4.90909H35.8114V7.21875H35.9648C36.2546 6.45739 36.7404 5.85511 37.4222 5.41193C38.104 4.96307 38.9308 4.73864 39.9023 4.73864C40.8114 4.73864 41.604 4.9375 42.2802 5.33523C42.9563 5.73295 43.4819 6.30114 43.8569 7.03977C44.2319 7.77273 44.4194 8.64773 44.4194 9.66477V18H40.7887V10.3125C40.7944 9.51136 40.5898 8.88636 40.1751 8.4375C39.7603 7.98295 39.1893 7.75568 38.462 7.75568C37.9734 7.75568 37.5415 7.8608 37.1665 8.07102C36.7972 8.28125 36.5075 8.58807 36.2972 8.99148C36.0927 9.3892 35.9876 9.86932 35.9819 10.4318ZM50.9116 10.4318V18H47.2809V0.545454H50.8093V7.21875H50.9627C51.2582 6.44602 51.7354 5.84091 52.3945 5.40341C53.0536 4.96023 53.8803 4.73864 54.8746 4.73864C55.7837 4.73864 56.5763 4.9375 57.2525 5.33523C57.9343 5.72727 58.4627 6.29261 58.8377 7.03125C59.2184 7.7642 59.4059 8.64205 59.4002 9.66477V18H55.7695V10.3125C55.7752 9.50568 55.5707 8.87784 55.1559 8.42898C54.7468 7.98011 54.1729 7.75568 53.4343 7.75568C52.94 7.75568 52.5025 7.8608 52.1218 8.07102C51.7468 8.28125 51.4513 8.58807 51.2354 8.99148C51.0252 9.3892 50.9173 9.86932 50.9116 10.4318ZM70.6523 12.4261V4.90909H74.283V18H70.7972V15.6222H70.6609C70.3654 16.3892 69.8739 17.0057 69.1864 17.4716C68.5046 17.9375 67.6722 18.1705 66.6893 18.1705C65.8143 18.1705 65.0444 17.9716 64.3796 17.5739C63.7148 17.1761 63.195 16.6108 62.82 15.8778C62.4506 15.1449 62.2631 14.267 62.2575 13.2443V4.90909H65.8881V12.5966C65.8938 13.3693 66.1012 13.9801 66.5103 14.429C66.9194 14.8778 67.4677 15.1023 68.1552 15.1023C68.5927 15.1023 69.0018 15.0028 69.3825 14.804C69.7631 14.5994 70.07 14.2983 70.3029 13.9006C70.5415 13.5028 70.658 13.0114 70.6523 12.4261ZM77.1871 18V4.90909H80.6474V7.21875H80.8008C81.0735 6.4517 81.5281 5.84659 82.1644 5.40341C82.8008 4.96023 83.5621 4.73864 84.4485 4.73864C85.3462 4.73864 86.1104 4.96307 86.7411 5.41193C87.3718 5.85511 87.7923 6.45739 88.0025 7.21875H88.1389C88.4059 6.46875 88.8888 5.86932 89.5877 5.42045C90.2923 4.96591 91.1246 4.73864 92.0849 4.73864C93.3065 4.73864 94.2979 5.12784 95.0593 5.90625C95.8264 6.67898 96.2099 7.77557 96.2099 9.19602V18H92.5877V9.91193C92.5877 9.18466 92.3945 8.6392 92.0082 8.27557C91.6218 7.91193 91.1389 7.73011 90.5593 7.73011C89.9002 7.73011 89.386 7.94034 89.0167 8.3608C88.6474 8.77557 88.4627 9.32386 88.4627 10.0057V18H84.9428V9.83523C84.9428 9.19318 84.7582 8.68182 84.3888 8.30114C84.0252 7.92045 83.5451 7.73011 82.9485 7.73011C82.5451 7.73011 82.1815 7.83239 81.8576 8.03693C81.5394 8.2358 81.2866 8.51705 81.0991 8.88068C80.9116 9.23864 80.8178 9.65909 80.8178 10.142V18H77.1871ZM102.811 18.2472C101.975 18.2472 101.231 18.1023 100.578 17.8125C99.9244 17.517 99.4073 17.0824 99.0266 16.5085C98.6516 15.929 98.4641 15.2074 98.4641 14.3438C98.4641 13.6165 98.5977 13.0057 98.8647 12.5114C99.1317 12.017 99.4954 11.6193 99.9556 11.3182C100.416 11.017 100.939 10.7898 101.524 10.6364C102.115 10.483 102.734 10.375 103.382 10.3125C104.143 10.233 104.757 10.1591 105.223 10.0909C105.689 10.017 106.027 9.90909 106.237 9.76705C106.447 9.625 106.552 9.41477 106.552 9.13636V9.08523C106.552 8.54545 106.382 8.12784 106.041 7.83239C105.706 7.53693 105.228 7.3892 104.609 7.3892C103.956 7.3892 103.436 7.53409 103.049 7.82386C102.663 8.10795 102.407 8.46591 102.282 8.89773L98.9244 8.625C99.0948 7.82955 99.43 7.14205 99.93 6.5625C100.43 5.97727 101.075 5.52841 101.865 5.21591C102.66 4.89773 103.581 4.73864 104.626 4.73864C105.353 4.73864 106.049 4.82386 106.714 4.99432C107.385 5.16477 107.978 5.42898 108.495 5.78693C109.018 6.14489 109.43 6.60511 109.731 7.16761C110.032 7.72443 110.183 8.39205 110.183 9.17045V18H106.74V16.1847H106.637C106.427 16.5938 106.146 16.9545 105.794 17.267C105.441 17.5739 105.018 17.8153 104.524 17.9915C104.029 18.1619 103.458 18.2472 102.811 18.2472ZM103.85 15.7415C104.385 15.7415 104.856 15.6364 105.265 15.4261C105.674 15.2102 105.995 14.9205 106.228 14.5568C106.461 14.1932 106.578 13.7812 106.578 13.321V11.9318C106.464 12.0057 106.308 12.0739 106.109 12.1364C105.916 12.1932 105.697 12.2472 105.453 12.2983C105.208 12.3437 104.964 12.3864 104.72 12.4261C104.475 12.4602 104.254 12.4915 104.055 12.5199C103.629 12.5824 103.257 12.6818 102.939 12.8182C102.62 12.9545 102.373 13.1392 102.197 13.3722C102.021 13.5994 101.933 13.8835 101.933 14.2244C101.933 14.7188 102.112 15.0966 102.47 15.358C102.833 15.6136 103.294 15.7415 103.85 15.7415ZM118.554 18V4.90909H122.015V7.21875H122.168C122.441 6.4517 122.895 5.84659 123.532 5.40341C124.168 4.96023 124.929 4.73864 125.816 4.73864C126.713 4.73864 127.478 4.96307 128.108 5.41193C128.739 5.85511 129.159 6.45739 129.37 7.21875H129.506C129.773 6.46875 130.256 5.86932 130.955 5.42045C131.659 4.96591 132.492 4.73864 133.452 4.73864C134.674 4.73864 135.665 5.12784 136.426 5.90625C137.194 6.67898 137.577 7.77557 137.577 9.19602V18H133.955V9.91193C133.955 9.18466 133.762 8.6392 133.375 8.27557C132.989 7.91193 132.506 7.73011 131.926 7.73011C131.267 7.73011 130.753 7.94034 130.384 8.3608C130.015 8.77557 129.83 9.32386 129.83 10.0057V18H126.31V9.83523C126.31 9.19318 126.125 8.68182 125.756 8.30114C125.392 7.92045 124.912 7.73011 124.316 7.73011C123.912 7.73011 123.549 7.83239 123.225 8.03693C122.907 8.2358 122.654 8.51705 122.466 8.88068C122.279 9.23864 122.185 9.65909 122.185 10.142V18H118.554ZM146.411 18.2557C145.064 18.2557 143.905 17.983 142.934 17.4375C141.968 16.8864 141.223 16.108 140.701 15.1023C140.178 14.0909 139.917 12.8949 139.917 11.5142C139.917 10.1676 140.178 8.9858 140.701 7.96875C141.223 6.9517 141.959 6.15909 142.908 5.59091C143.863 5.02273 144.982 4.73864 146.266 4.73864C147.13 4.73864 147.934 4.87784 148.678 5.15625C149.428 5.42898 150.081 5.84091 150.638 6.39205C151.201 6.94318 151.638 7.63636 151.951 8.47159C152.263 9.30114 152.419 10.2727 152.419 11.3864V12.3835H141.365V10.1335H149.002C149.002 9.6108 148.888 9.14773 148.661 8.74432C148.434 8.34091 148.118 8.02557 147.715 7.7983C147.317 7.56534 146.854 7.44886 146.326 7.44886C145.775 7.44886 145.286 7.5767 144.86 7.83239C144.439 8.08239 144.11 8.42045 143.871 8.84659C143.632 9.26705 143.51 9.7358 143.505 10.2528V12.392C143.505 13.0398 143.624 13.5994 143.863 14.071C144.107 14.5426 144.451 14.9062 144.894 15.1619C145.337 15.4176 145.863 15.5455 146.471 15.5455C146.874 15.5455 147.243 15.4886 147.578 15.375C147.914 15.2614 148.201 15.0909 148.439 14.8636C148.678 14.6364 148.86 14.358 148.985 14.0284L152.343 14.25C152.172 15.0568 151.823 15.7614 151.294 16.3636C150.772 16.9602 150.096 17.4261 149.266 17.7614C148.442 18.0909 147.49 18.2557 146.411 18.2557ZM158.419 10.4318V18H154.789V4.90909H158.249V7.21875H158.402C158.692 6.45739 159.178 5.85511 159.86 5.41193C160.542 4.96307 161.368 4.73864 162.34 4.73864C163.249 4.73864 164.042 4.9375 164.718 5.33523C165.394 5.73295 165.919 6.30114 166.294 7.03977C166.669 7.77273 166.857 8.64773 166.857 9.66477V18H163.226V10.3125C163.232 9.51136 163.027 8.88636 162.613 8.4375C162.198 7.98295 161.627 7.75568 160.9 7.75568C160.411 7.75568 159.979 7.8608 159.604 8.07102C159.235 8.28125 158.945 8.58807 158.735 8.99148C158.53 9.3892 158.425 9.86932 158.419 10.4318ZM180.61 8.64205L177.287 8.84659C177.23 8.5625 177.108 8.30682 176.92 8.07955C176.733 7.84659 176.485 7.66193 176.179 7.52557C175.877 7.38352 175.517 7.3125 175.096 7.3125C174.534 7.3125 174.059 7.43182 173.673 7.67045C173.287 7.90341 173.093 8.21591 173.093 8.60795C173.093 8.92045 173.218 9.18466 173.468 9.40057C173.718 9.61648 174.147 9.78977 174.755 9.92045L177.125 10.3977C178.397 10.6591 179.346 11.0795 179.971 11.6591C180.596 12.2386 180.909 13 180.909 13.9432C180.909 14.8011 180.656 15.554 180.15 16.2017C179.65 16.8494 178.963 17.3551 178.088 17.7188C177.218 18.0767 176.216 18.2557 175.079 18.2557C173.346 18.2557 171.966 17.8949 170.937 17.1733C169.914 16.446 169.315 15.4574 169.139 14.2074L172.71 14.0199C172.818 14.5483 173.079 14.9517 173.494 15.2301C173.909 15.5028 174.44 15.6392 175.088 15.6392C175.724 15.6392 176.235 15.517 176.622 15.2727C177.014 15.0227 177.213 14.7017 177.218 14.3097C177.213 13.9801 177.074 13.7102 176.801 13.5C176.528 13.2841 176.108 13.1193 175.539 13.0057L173.272 12.554C171.994 12.2983 171.042 11.8551 170.417 11.2244C169.798 10.5937 169.488 9.78977 169.488 8.8125C169.488 7.97159 169.716 7.24716 170.17 6.6392C170.63 6.03125 171.275 5.5625 172.105 5.23295C172.94 4.90341 173.917 4.73864 175.037 4.73864C176.69 4.73864 177.991 5.08807 178.94 5.78693C179.895 6.4858 180.451 7.4375 180.61 8.64205ZM186.928 18.2472C186.093 18.2472 185.348 18.1023 184.695 17.8125C184.042 17.517 183.525 17.0824 183.144 16.5085C182.769 15.929 182.581 15.2074 182.581 14.3438C182.581 13.6165 182.715 13.0057 182.982 12.5114C183.249 12.017 183.613 11.6193 184.073 11.3182C184.533 11.017 185.056 10.7898 185.641 10.6364C186.232 10.483 186.851 10.375 187.499 10.3125C188.26 10.233 188.874 10.1591 189.34 10.0909C189.806 10.017 190.144 9.90909 190.354 9.76705C190.564 9.625 190.669 9.41477 190.669 9.13636V9.08523C190.669 8.54545 190.499 8.12784 190.158 7.83239C189.823 7.53693 189.346 7.3892 188.726 7.3892C188.073 7.3892 187.553 7.53409 187.167 7.82386C186.78 8.10795 186.525 8.46591 186.4 8.89773L183.042 8.625C183.212 7.82955 183.547 7.14205 184.047 6.5625C184.547 5.97727 185.192 5.52841 185.982 5.21591C186.777 4.89773 187.698 4.73864 188.743 4.73864C189.471 4.73864 190.167 4.82386 190.831 4.99432C191.502 5.16477 192.096 5.42898 192.613 5.78693C193.135 6.14489 193.547 6.60511 193.848 7.16761C194.15 7.72443 194.3 8.39205 194.3 9.17045V18H190.857V16.1847H190.755C190.544 16.5938 190.263 16.9545 189.911 17.267C189.559 17.5739 189.135 17.8153 188.641 17.9915C188.147 18.1619 187.576 18.2472 186.928 18.2472ZM187.968 15.7415C188.502 15.7415 188.973 15.6364 189.382 15.4261C189.792 15.2102 190.113 14.9205 190.346 14.5568C190.578 14.1932 190.695 13.7812 190.695 13.321V11.9318C190.581 12.0057 190.425 12.0739 190.226 12.1364C190.033 12.1932 189.814 12.2472 189.57 12.2983C189.326 12.3437 189.081 12.3864 188.837 12.4261C188.593 12.4602 188.371 12.4915 188.172 12.5199C187.746 12.5824 187.374 12.6818 187.056 12.8182C186.738 12.9545 186.49 13.1392 186.314 13.3722C186.138 13.5994 186.05 13.8835 186.05 14.2244C186.05 14.7188 186.229 15.0966 186.587 15.358C186.951 15.6136 187.411 15.7415 187.968 15.7415ZM203.015 23.1818C201.838 23.1818 200.83 23.0199 199.989 22.696C199.154 22.3778 198.489 21.9432 197.995 21.392C197.5 20.8409 197.179 20.2216 197.032 19.5341L200.39 19.0824C200.492 19.3438 200.654 19.5881 200.875 19.8153C201.097 20.0426 201.39 20.2244 201.753 20.3608C202.123 20.5028 202.571 20.5739 203.1 20.5739C203.89 20.5739 204.54 20.3807 205.051 19.9943C205.569 19.6136 205.827 18.9744 205.827 18.0767V15.6818H205.674C205.515 16.0455 205.276 16.3892 204.958 16.7131C204.64 17.0369 204.23 17.3011 203.73 17.5057C203.23 17.7102 202.634 17.8125 201.941 17.8125C200.958 17.8125 200.063 17.5852 199.256 17.1307C198.455 16.6705 197.816 15.9687 197.338 15.0256C196.867 14.0767 196.631 12.8778 196.631 11.429C196.631 9.94602 196.873 8.70739 197.355 7.71307C197.838 6.71875 198.48 5.97443 199.282 5.48011C200.088 4.9858 200.972 4.73864 201.932 4.73864C202.665 4.73864 203.279 4.86364 203.773 5.11364C204.267 5.35795 204.665 5.66477 204.966 6.03409C205.273 6.39773 205.509 6.75568 205.674 7.10795H205.81V4.90909H209.415V18.1278C209.415 19.2415 209.142 20.1733 208.597 20.9233C208.051 21.6733 207.296 22.2358 206.33 22.6108C205.37 22.9915 204.265 23.1818 203.015 23.1818ZM203.091 15.0852C203.676 15.0852 204.171 14.9403 204.574 14.6506C204.983 14.3551 205.296 13.9347 205.512 13.3892C205.733 12.8381 205.844 12.179 205.844 11.4119C205.844 10.6449 205.736 9.98011 205.52 9.41761C205.304 8.84943 204.992 8.40909 204.583 8.09659C204.174 7.78409 203.676 7.62784 203.091 7.62784C202.495 7.62784 201.992 7.78977 201.583 8.11364C201.174 8.43182 200.864 8.875 200.654 9.44318C200.444 10.0114 200.338 10.6676 200.338 11.4119C200.338 12.1676 200.444 12.821 200.654 13.3722C200.87 13.9176 201.179 14.3409 201.583 14.642C201.992 14.9375 202.495 15.0852 203.091 15.0852ZM218.27 18.2557C216.924 18.2557 215.765 17.983 214.793 17.4375C213.827 16.8864 213.083 16.108 212.56 15.1023C212.037 14.0909 211.776 12.8949 211.776 11.5142C211.776 10.1676 212.037 8.9858 212.56 7.96875C213.083 6.9517 213.819 6.15909 214.767 5.59091C215.722 5.02273 216.841 4.73864 218.125 4.73864C218.989 4.73864 219.793 4.87784 220.537 5.15625C221.287 5.42898 221.941 5.84091 222.498 6.39205C223.06 6.94318 223.498 7.63636 223.81 8.47159C224.123 9.30114 224.279 10.2727 224.279 11.3864V12.3835H213.225V10.1335H220.861C220.861 9.6108 220.748 9.14773 220.52 8.74432C220.293 8.34091 219.978 8.02557 219.574 7.7983C219.176 7.56534 218.713 7.44886 218.185 7.44886C217.634 7.44886 217.145 7.5767 216.719 7.83239C216.299 8.08239 215.969 8.42045 215.73 8.84659C215.492 9.26705 215.37 9.7358 215.364 10.2528V12.392C215.364 13.0398 215.483 13.5994 215.722 14.071C215.966 14.5426 216.31 14.9062 216.753 15.1619C217.196 15.4176 217.722 15.5455 218.33 15.5455C218.733 15.5455 219.103 15.4886 219.438 15.375C219.773 15.2614 220.06 15.0909 220.299 14.8636C220.537 14.6364 220.719 14.358 220.844 14.0284L224.202 14.25C224.032 15.0568 223.682 15.7614 223.154 16.3636C222.631 16.9602 221.955 17.4261 221.125 17.7614C220.301 18.0909 219.35 18.2557 218.27 18.2557ZM226.648 18V4.90909H230.108V7.21875H230.262C230.534 6.4517 230.989 5.84659 231.625 5.40341C232.262 4.96023 233.023 4.73864 233.909 4.73864C234.807 4.73864 235.571 4.96307 236.202 5.41193C236.833 5.85511 237.253 6.45739 237.463 7.21875H237.6C237.867 6.46875 238.35 5.86932 239.049 5.42045C239.753 4.96591 240.586 4.73864 241.546 4.73864C242.767 4.73864 243.759 5.12784 244.52 5.90625C245.287 6.67898 245.671 7.77557 245.671 9.19602V18H242.049V9.91193C242.049 9.18466 241.855 8.6392 241.469 8.27557C241.083 7.91193 240.6 7.73011 240.02 7.73011C239.361 7.73011 238.847 7.94034 238.478 8.3608C238.108 8.77557 237.924 9.32386 237.924 10.0057V18H234.404V9.83523C234.404 9.19318 234.219 8.68182 233.85 8.30114C233.486 7.92045 233.006 7.73011 232.409 7.73011C232.006 7.73011 231.642 7.83239 231.319 8.03693C231 8.2358 230.748 8.51705 230.56 8.88068C230.373 9.23864 230.279 9.65909 230.279 10.142V18H226.648ZM62.9734 47.2557C61.6268 47.2557 60.4677 46.983 59.4961 46.4375C58.5302 45.8864 57.7859 45.108 57.2631 44.1023C56.7404 43.0909 56.479 41.8949 56.479 40.5142C56.479 39.1676 56.7404 37.9858 57.2631 36.9688C57.7859 35.9517 58.5217 35.1591 59.4705 34.5909C60.4251 34.0227 61.5444 33.7386 62.8285 33.7386C63.6921 33.7386 64.4961 33.8778 65.2404 34.1562C65.9904 34.429 66.6438 34.8409 67.2006 35.392C67.7631 35.9432 68.2006 36.6364 68.5131 37.4716C68.8256 38.3011 68.9819 39.2727 68.9819 40.3864V41.3835H57.9279V39.1335H65.5643C65.5643 38.6108 65.4506 38.1477 65.2234 37.7443C64.9961 37.3409 64.6808 37.0256 64.2773 36.7983C63.8796 36.5653 63.4165 36.4489 62.8881 36.4489C62.337 36.4489 61.8484 36.5767 61.4222 36.8324C61.0018 37.0824 60.6722 37.4205 60.4336 37.8466C60.195 38.267 60.0728 38.7358 60.0671 39.2528V41.392C60.0671 42.0398 60.1864 42.5994 60.4251 43.071C60.6694 43.5426 61.0131 43.9062 61.4563 44.1619C61.8995 44.4176 62.4251 44.5455 63.033 44.5455C63.4364 44.5455 63.8058 44.4886 64.141 44.375C64.4762 44.2614 64.7631 44.0909 65.0018 43.8636C65.2404 43.6364 65.4222 43.358 65.5472 43.0284L68.9052 43.25C68.7347 44.0568 68.3853 44.7614 67.8569 45.3636C67.3342 45.9602 66.658 46.4261 65.8285 46.7614C65.0046 47.0909 64.0529 47.2557 62.9734 47.2557ZM74.9819 39.4318V47H71.3512V33.9091H74.8114V36.2188H74.9648C75.2546 35.4574 75.7404 34.8551 76.4222 34.4119C77.104 33.9631 77.9308 33.7386 78.9023 33.7386C79.8114 33.7386 80.604 33.9375 81.2802 34.3352C81.9563 34.733 82.4819 35.3011 82.8569 36.0398C83.2319 36.7727 83.4194 37.6477 83.4194 38.6648V47H79.7887V39.3125C79.7944 38.5114 79.5898 37.8864 79.1751 37.4375C78.7603 36.983 78.1893 36.7557 77.462 36.7557C76.9734 36.7557 76.5415 36.8608 76.1665 37.071C75.7972 37.2812 75.5075 37.5881 75.2972 37.9915C75.0927 38.3892 74.9876 38.8693 74.9819 39.4318ZM92.1957 47.2557C90.8548 47.2557 89.7013 46.9716 88.7354 46.4034C87.7752 45.8295 87.0366 45.0341 86.5195 44.017C86.0082 43 85.7525 41.8295 85.7525 40.5057C85.7525 39.1648 86.011 37.9886 86.5281 36.9773C87.0508 35.9602 87.7923 35.1676 88.7525 34.5994C89.7127 34.0256 90.8548 33.7386 92.1786 33.7386C93.3207 33.7386 94.3207 33.946 95.1786 34.3608C96.0366 34.7756 96.7156 35.358 97.2156 36.108C97.7156 36.858 97.9911 37.7386 98.0423 38.75H94.6161C94.5195 38.0966 94.2638 37.571 93.8491 37.1733C93.44 36.7699 92.9031 36.5682 92.2383 36.5682C91.6758 36.5682 91.1843 36.7216 90.7638 37.0284C90.3491 37.3295 90.0252 37.7699 89.7923 38.3494C89.5593 38.929 89.4428 39.6307 89.4428 40.4545C89.4428 41.2898 89.5565 42 89.7837 42.5852C90.0167 43.1705 90.3434 43.6165 90.7638 43.9233C91.1843 44.2301 91.6758 44.3835 92.2383 44.3835C92.6531 44.3835 93.0252 44.2983 93.3548 44.1278C93.69 43.9574 93.9656 43.7102 94.1815 43.3864C94.4031 43.0568 94.5479 42.6619 94.6161 42.2017H98.0423C97.9854 43.2017 97.7127 44.0824 97.2241 44.8438C96.7411 45.5994 96.0735 46.1903 95.2212 46.6165C94.369 47.0426 93.3604 47.2557 92.1957 47.2557ZM106.282 47.2557C104.958 47.2557 103.813 46.9744 102.847 46.4119C101.887 45.8437 101.145 45.054 100.623 44.0426C100.1 43.0256 99.8384 41.8466 99.8384 40.5057C99.8384 39.1534 100.1 37.9716 100.623 36.9602C101.145 35.9432 101.887 35.1534 102.847 34.5909C103.813 34.0227 104.958 33.7386 106.282 33.7386C107.605 33.7386 108.748 34.0227 109.708 34.5909C110.674 35.1534 111.418 35.9432 111.941 36.9602C112.463 37.9716 112.725 39.1534 112.725 40.5057C112.725 41.8466 112.463 43.0256 111.941 44.0426C111.418 45.054 110.674 45.8437 109.708 46.4119C108.748 46.9744 107.605 47.2557 106.282 47.2557ZM106.299 44.4432C106.901 44.4432 107.404 44.2727 107.807 43.9318C108.211 43.5852 108.515 43.1136 108.719 42.517C108.929 41.9205 109.034 41.2415 109.034 40.4801C109.034 39.7188 108.929 39.0398 108.719 38.4432C108.515 37.8466 108.211 37.375 107.807 37.0284C107.404 36.6818 106.901 36.5085 106.299 36.5085C105.691 36.5085 105.179 36.6818 104.765 37.0284C104.355 37.375 104.046 37.8466 103.836 38.4432C103.631 39.0398 103.529 39.7188 103.529 40.4801C103.529 41.2415 103.631 41.9205 103.836 42.517C104.046 43.1136 104.355 43.5852 104.765 43.9318C105.179 44.2727 105.691 44.4432 106.299 44.4432ZM118.716 39.4318V47H115.086V33.9091H118.546V36.2188H118.699C118.989 35.4574 119.475 34.8551 120.157 34.4119C120.838 33.9631 121.665 33.7386 122.637 33.7386C123.546 33.7386 124.338 33.9375 125.015 34.3352C125.691 34.733 126.216 35.3011 126.591 36.0398C126.966 36.7727 127.154 37.6477 127.154 38.6648V47H123.523V39.3125C123.529 38.5114 123.324 37.8864 122.909 37.4375C122.495 36.983 121.924 36.7557 121.196 36.7557C120.708 36.7557 120.276 36.8608 119.901 37.071C119.532 37.2812 119.242 37.5881 119.032 37.9915C118.827 38.3892 118.722 38.8693 118.716 39.4318ZM136.978 33.9091V36.6364H129.095V33.9091H136.978ZM130.885 30.7727H134.515V42.9773C134.515 43.3125 134.566 43.5739 134.669 43.7614C134.771 43.9432 134.913 44.071 135.095 44.1449C135.282 44.2187 135.498 44.2557 135.743 44.2557C135.913 44.2557 136.083 44.2415 136.254 44.2131C136.424 44.179 136.555 44.1534 136.646 44.1364L137.217 46.8381C137.035 46.8949 136.779 46.9602 136.45 47.0341C136.12 47.1136 135.72 47.1619 135.248 47.179C134.373 47.2131 133.606 47.0966 132.947 46.8295C132.294 46.5625 131.785 46.1477 131.422 45.5852C131.058 45.0227 130.879 44.3125 130.885 43.4545V30.7727ZM139.343 47V33.9091H142.863V36.1932H143C143.238 35.3807 143.639 34.767 144.201 34.3523C144.764 33.9318 145.412 33.7216 146.145 33.7216C146.326 33.7216 146.522 33.733 146.733 33.7557C146.943 33.7784 147.127 33.8097 147.287 33.8494V37.071C147.116 37.0199 146.88 36.9744 146.579 36.9347C146.278 36.8949 146.002 36.875 145.752 36.875C145.218 36.875 144.741 36.9915 144.321 37.2244C143.906 37.4517 143.576 37.7699 143.332 38.179C143.093 38.5881 142.974 39.0597 142.974 39.5938V47H139.343ZM152.522 47.2472C151.686 47.2472 150.942 47.1023 150.289 46.8125C149.635 46.517 149.118 46.0824 148.738 45.5085C148.363 44.929 148.175 44.2074 148.175 43.3438C148.175 42.6165 148.309 42.0057 148.576 41.5114C148.843 41.017 149.206 40.6193 149.667 40.3182C150.127 40.017 150.65 39.7898 151.235 39.6364C151.826 39.483 152.445 39.375 153.093 39.3125C153.854 39.233 154.468 39.1591 154.934 39.0909C155.4 39.017 155.738 38.9091 155.948 38.767C156.158 38.625 156.263 38.4148 156.263 38.1364V38.0852C156.263 37.5455 156.093 37.1278 155.752 36.8324C155.417 36.5369 154.939 36.3892 154.32 36.3892C153.667 36.3892 153.147 36.5341 152.76 36.8239C152.374 37.108 152.118 37.4659 151.993 37.8977L148.635 37.625C148.806 36.8295 149.141 36.142 149.641 35.5625C150.141 34.9773 150.786 34.5284 151.576 34.2159C152.371 33.8977 153.292 33.7386 154.337 33.7386C155.064 33.7386 155.76 33.8239 156.425 33.9943C157.096 34.1648 157.689 34.429 158.206 34.7869C158.729 35.1449 159.141 35.6051 159.442 36.1676C159.743 36.7244 159.894 37.392 159.894 38.1705V47H156.451V45.1847H156.348C156.138 45.5938 155.857 45.9545 155.505 46.267C155.152 46.5739 154.729 46.8153 154.235 46.9915C153.74 47.1619 153.169 47.2472 152.522 47.2472ZM153.561 44.7415C154.096 44.7415 154.567 44.6364 154.976 44.4261C155.385 44.2102 155.706 43.9205 155.939 43.5568C156.172 43.1932 156.289 42.7812 156.289 42.321V40.9318C156.175 41.0057 156.019 41.0739 155.82 41.1364C155.627 41.1932 155.408 41.2472 155.164 41.2983C154.919 41.3437 154.675 41.3864 154.431 41.4261C154.186 41.4602 153.965 41.4915 153.766 41.5199C153.34 41.5824 152.968 41.6818 152.65 41.8182C152.331 41.9545 152.084 42.1392 151.908 42.3722C151.732 42.5994 151.644 42.8835 151.644 43.2244C151.644 43.7188 151.823 44.0966 152.181 44.358C152.544 44.6136 153.005 44.7415 153.561 44.7415ZM167.534 47.2131C166.54 47.2131 165.64 46.9574 164.833 46.446C164.032 45.929 163.395 45.1705 162.924 44.1705C162.458 43.1648 162.225 41.9318 162.225 40.4716C162.225 38.9716 162.466 37.7244 162.949 36.7301C163.432 35.7301 164.074 34.983 164.875 34.4886C165.682 33.9886 166.566 33.7386 167.526 33.7386C168.259 33.7386 168.87 33.8636 169.358 34.1136C169.853 34.358 170.25 34.6648 170.551 35.0341C170.858 35.3977 171.091 35.7557 171.25 36.108H171.361V29.5455H174.983V47H171.404V44.9034H171.25C171.08 45.267 170.838 45.6278 170.526 45.9858C170.219 46.3381 169.819 46.6307 169.324 46.8636C168.836 47.0966 168.239 47.2131 167.534 47.2131ZM168.685 44.3239C169.27 44.3239 169.765 44.1648 170.168 43.8466C170.577 43.5227 170.89 43.071 171.105 42.4915C171.327 41.9119 171.438 41.233 171.438 40.4545C171.438 39.6761 171.33 39 171.114 38.4261C170.898 37.8523 170.586 37.4091 170.176 37.0966C169.767 36.7841 169.27 36.6278 168.685 36.6278C168.088 36.6278 167.586 36.7898 167.176 37.1136C166.767 37.4375 166.458 37.8864 166.248 38.4602C166.037 39.0341 165.932 39.6989 165.932 40.4545C165.932 41.2159 166.037 41.8892 166.248 42.4744C166.463 43.054 166.773 43.5085 167.176 43.8381C167.586 44.1619 168.088 44.3239 168.685 44.3239ZM181.701 47.2472C180.866 47.2472 180.122 47.1023 179.468 46.8125C178.815 46.517 178.298 46.0824 177.917 45.5085C177.542 44.929 177.355 44.2074 177.355 43.3438C177.355 42.6165 177.488 42.0057 177.755 41.5114C178.022 41.017 178.386 40.6193 178.846 40.3182C179.306 40.017 179.829 39.7898 180.414 39.6364C181.005 39.483 181.625 39.375 182.272 39.3125C183.034 39.233 183.647 39.1591 184.113 39.0909C184.579 39.017 184.917 38.9091 185.127 38.767C185.338 38.625 185.443 38.4148 185.443 38.1364V38.0852C185.443 37.5455 185.272 37.1278 184.931 36.8324C184.596 36.5369 184.119 36.3892 183.5 36.3892C182.846 36.3892 182.326 36.5341 181.94 36.8239C181.554 37.108 181.298 37.4659 181.173 37.8977L177.815 37.625C177.985 36.8295 178.321 36.142 178.821 35.5625C179.321 34.9773 179.966 34.5284 180.755 34.2159C181.551 33.8977 182.471 33.7386 183.517 33.7386C184.244 33.7386 184.94 33.8239 185.605 33.9943C186.275 34.1648 186.869 34.429 187.386 34.7869C187.909 35.1449 188.321 35.6051 188.622 36.1676C188.923 36.7244 189.074 37.392 189.074 38.1705V47H185.63V45.1847H185.528C185.318 45.5938 185.037 45.9545 184.684 46.267C184.332 46.5739 183.909 46.8153 183.414 46.9915C182.92 47.1619 182.349 47.2472 181.701 47.2472ZM182.741 44.7415C183.275 44.7415 183.747 44.6364 184.156 44.4261C184.565 44.2102 184.886 43.9205 185.119 43.5568C185.352 43.1932 185.468 42.7812 185.468 42.321V40.9318C185.355 41.0057 185.199 41.0739 185 41.1364C184.806 41.1932 184.588 41.2472 184.343 41.2983C184.099 41.3437 183.855 41.3864 183.61 41.4261C183.366 41.4602 183.145 41.4915 182.946 41.5199C182.52 41.5824 182.147 41.6818 181.829 41.8182C181.511 41.9545 181.264 42.1392 181.088 42.3722C180.912 42.5994 180.824 42.8835 180.824 43.2244C180.824 43.7188 181.002 44.0966 181.36 44.358C181.724 44.6136 182.184 44.7415 182.741 44.7415Z" fill="#343A40"/>
</svg>
