<svg width="241" height="41" viewBox="0 0 241 41" fill="none" xmlns="http://www.w3.org/2000/svg">
<path d="M3.61719 13H0.0262785V1.36364H3.77628C4.90507 1.36364 5.87098 1.59659 6.67401 2.0625C7.47704 2.52462 8.09257 3.18939 8.5206 4.05682C8.94863 4.92045 9.16264 5.95455 9.16264 7.15909C9.16264 8.37121 8.94673 9.41477 8.51492 10.2898C8.0831 11.161 7.45431 11.8314 6.62855 12.3011C5.80279 12.767 4.79901 13 3.61719 13ZM1.43537 11.75H3.52628C4.4884 11.75 5.28575 11.5644 5.91832 11.1932C6.5509 10.822 7.02249 10.2936 7.3331 9.60795C7.6437 8.92235 7.79901 8.10606 7.79901 7.15909C7.79901 6.2197 7.6456 5.41098 7.33878 4.73295C7.03196 4.05114 6.57363 3.52841 5.96378 3.16477C5.35393 2.79735 4.59446 2.61364 3.68537 2.61364H1.43537V11.75ZM11.3445 13V4.27273H12.6854V13H11.3445ZM12.0263 2.81818C11.7649 2.81818 11.5395 2.72917 11.3501 2.55114C11.1645 2.37311 11.0717 2.15909 11.0717 1.90909C11.0717 1.65909 11.1645 1.44508 11.3501 1.26705C11.5395 1.08902 11.7649 1 12.0263 1C12.2876 1 12.5111 1.08902 12.6967 1.26705C12.8861 1.44508 12.9808 1.65909 12.9808 1.90909C12.9808 2.15909 12.8861 2.37311 12.6967 2.55114C12.5111 2.72917 12.2876 2.81818 12.0263 2.81818ZM18.6641 16.4545C18.0163 16.4545 17.4595 16.3712 16.9936 16.2045C16.5277 16.0417 16.1394 15.8258 15.8288 15.5568C15.522 15.2917 15.2777 15.0076 15.0959 14.7045L16.1641 13.9545C16.2853 14.1136 16.4387 14.2955 16.6243 14.5C16.8099 14.7083 17.0637 14.8883 17.3857 15.0398C17.7114 15.1951 18.1375 15.2727 18.6641 15.2727C19.3686 15.2727 19.95 15.1023 20.4084 14.7614C20.8667 14.4205 21.0959 13.8864 21.0959 13.1591V11.3864H20.9822C20.8838 11.5455 20.7436 11.7424 20.5618 11.9773C20.3838 12.2083 20.1262 12.4148 19.7891 12.5966C19.4557 12.7746 19.005 12.8636 18.4368 12.8636C17.7322 12.8636 17.0997 12.697 16.5391 12.3636C15.9822 12.0303 15.541 11.5455 15.2152 10.9091C14.8932 10.2727 14.7322 9.5 14.7322 8.59091C14.7322 7.69697 14.8894 6.91856 15.2038 6.25568C15.5182 5.58901 15.9557 5.07386 16.5163 4.71023C17.0769 4.3428 17.7247 4.15909 18.4595 4.15909C19.0277 4.15909 19.4785 4.25379 19.8118 4.44318C20.1489 4.62879 20.4065 4.84091 20.5845 5.07955C20.7663 5.31439 20.9065 5.50758 21.005 5.65909H21.1413V4.27273H22.4368V13.25C22.4368 14 22.2663 14.6098 21.9254 15.0795C21.5883 15.553 21.1338 15.8996 20.5618 16.1193C19.9936 16.3428 19.361 16.4545 18.6641 16.4545ZM18.6186 11.6591C19.1565 11.6591 19.611 11.536 19.9822 11.2898C20.3535 11.0436 20.6357 10.6894 20.8288 10.2273C21.022 9.76515 21.1186 9.21212 21.1186 8.56818C21.1186 7.93939 21.0239 7.38447 20.8345 6.90341C20.6451 6.42235 20.3648 6.04545 19.9936 5.77273C19.6224 5.5 19.1641 5.36364 18.6186 5.36364C18.0504 5.36364 17.5769 5.50758 17.1982 5.79545C16.8232 6.08333 16.541 6.4697 16.3516 6.95455C16.166 7.43939 16.0732 7.97727 16.0732 8.56818C16.0732 9.17424 16.1679 9.71023 16.3572 10.1761C16.5504 10.6383 16.8345 11.0019 17.2095 11.267C17.5883 11.5284 18.058 11.6591 18.6186 11.6591ZM24.8913 13V4.27273H26.2322V13H24.8913ZM25.5732 2.81818C25.3118 2.81818 25.0864 2.72917 24.897 2.55114C24.7114 2.37311 24.6186 2.15909 24.6186 1.90909C24.6186 1.65909 24.7114 1.44508 24.897 1.26705C25.0864 1.08902 25.3118 1 25.5732 1C25.8345 1 26.058 1.08902 26.2436 1.26705C26.433 1.44508 26.5277 1.65909 26.5277 1.90909C26.5277 2.15909 26.433 2.37311 26.2436 2.55114C26.058 2.72917 25.8345 2.81818 25.5732 2.81818ZM32.4837 4.27273V5.40909H27.9609V4.27273H32.4837ZM29.2791 2.18182H30.62V10.5C30.62 10.8788 30.675 11.1629 30.7848 11.3523C30.8984 11.5379 31.0424 11.6629 31.2166 11.7273C31.3946 11.7879 31.5821 11.8182 31.7791 11.8182C31.9268 11.8182 32.0481 11.8106 32.1428 11.7955C32.2375 11.7765 32.3132 11.7614 32.37 11.75L32.6428 12.9545C32.5518 12.9886 32.425 13.0227 32.2621 13.0568C32.0992 13.0947 31.8928 13.1136 31.6428 13.1136C31.264 13.1136 30.8928 13.0322 30.5291 12.8693C30.1693 12.7064 29.87 12.4583 29.6314 12.125C29.3965 11.7917 29.2791 11.3712 29.2791 10.8636V2.18182ZM38.0661 13.1818C37.2251 13.1818 36.4998 12.9962 35.8899 12.625C35.2839 12.25 34.8161 11.7273 34.4865 11.0568C34.1607 10.3826 33.9979 9.59848 33.9979 8.70455C33.9979 7.81061 34.1607 7.02273 34.4865 6.34091C34.8161 5.6553 35.2744 5.12121 35.8615 4.73864C36.4524 4.35227 37.1418 4.15909 37.9297 4.15909C38.3842 4.15909 38.8331 4.23485 39.2763 4.38636C39.7195 4.53788 40.1229 4.78409 40.4865 5.125C40.8501 5.46212 41.1399 5.90909 41.3558 6.46591C41.5717 7.02273 41.6797 7.70833 41.6797 8.52273V9.09091H34.9524V7.93182H40.3161C40.3161 7.43939 40.2176 7 40.0206 6.61364C39.8274 6.22727 39.5509 5.92235 39.1911 5.69886C38.835 5.47538 38.4145 5.36364 37.9297 5.36364C37.3956 5.36364 36.9335 5.49621 36.5433 5.76136C36.157 6.02273 35.8596 6.36364 35.6513 6.78409C35.4429 7.20455 35.3388 7.6553 35.3388 8.13636V8.90909C35.3388 9.56818 35.4524 10.1269 35.6797 10.5852C35.9107 11.0398 36.2308 11.3864 36.6399 11.625C37.049 11.8598 37.5244 11.9773 38.0661 11.9773C38.4183 11.9773 38.7365 11.928 39.0206 11.8295C39.3085 11.7273 39.5566 11.5758 39.7649 11.375C39.9732 11.1705 40.1342 10.9167 40.2479 10.6136L41.5433 10.9773C41.407 11.4167 41.1778 11.803 40.8558 12.1364C40.5339 12.4659 40.1361 12.7235 39.6626 12.9091C39.1892 13.0909 38.657 13.1818 38.0661 13.1818ZM53.7195 9.43182V4.27273H55.0604V13H53.7195V11.5227H53.6286C53.424 11.9659 53.1058 12.3428 52.674 12.6534C52.2422 12.9602 51.6967 13.1136 51.0376 13.1136C50.4922 13.1136 50.0073 12.9943 49.5831 12.7557C49.1589 12.5133 48.8255 12.1496 48.5831 11.6648C48.3407 11.1761 48.2195 10.5606 48.2195 9.81818V4.27273H49.5604V9.72727C49.5604 10.3636 49.7384 10.8712 50.0945 11.25C50.4543 11.6288 50.9126 11.8182 51.4695 11.8182C51.8028 11.8182 52.1418 11.733 52.4865 11.5625C52.835 11.392 53.1267 11.1307 53.3615 10.7784C53.6001 10.4261 53.7195 9.97727 53.7195 9.43182ZM57.5163 13V4.27273H58.8118V5.63636H58.9254C59.1072 5.17045 59.4008 4.80871 59.8061 4.55114C60.2114 4.28977 60.6982 4.15909 61.2663 4.15909C61.8421 4.15909 62.3213 4.28977 62.7038 4.55114C63.0902 4.80871 63.3913 5.17045 63.6072 5.63636H63.6982C63.9216 5.18561 64.2569 4.82765 64.7038 4.5625C65.1508 4.29356 65.6868 4.15909 66.3118 4.15909C67.0921 4.15909 67.7304 4.40341 68.2266 4.89205C68.7228 5.37689 68.9709 6.13258 68.9709 7.15909V13H67.63V7.15909C67.63 6.51515 67.4538 6.05492 67.1016 5.77841C66.7493 5.50189 66.3345 5.36364 65.8572 5.36364C65.2436 5.36364 64.7682 5.54924 64.4311 5.92045C64.094 6.28788 63.9254 6.75379 63.9254 7.31818V13H62.5618V7.02273C62.5618 6.52652 62.4008 6.12689 62.0788 5.82386C61.7569 5.51705 61.3421 5.36364 60.8345 5.36364C60.486 5.36364 60.1603 5.45644 59.8572 5.64205C59.558 5.82765 59.3156 6.08523 59.13 6.41477C58.9482 6.74053 58.8572 7.11742 58.8572 7.54545V13H57.5163ZM79.718 4.27273V5.40909H75.1953V4.27273H79.718ZM76.5135 2.18182H77.8544V10.5C77.8544 10.8788 77.9093 11.1629 78.0192 11.3523C78.1328 11.5379 78.2768 11.6629 78.451 11.7273C78.629 11.7879 78.8165 11.8182 79.0135 11.8182C79.1612 11.8182 79.2824 11.8106 79.3771 11.7955C79.4718 11.7765 79.5476 11.7614 79.6044 11.75L79.8771 12.9545C79.7862 12.9886 79.6593 13.0227 79.4964 13.0568C79.3336 13.0947 79.1271 13.1136 78.8771 13.1136C78.4983 13.1136 78.1271 13.0322 77.7635 12.8693C77.4036 12.7064 77.1044 12.4583 76.8658 12.125C76.6309 11.7917 76.5135 11.3712 76.5135 10.8636V2.18182ZM85.3004 13.1818C84.4595 13.1818 83.7341 12.9962 83.1243 12.625C82.5182 12.25 82.0504 11.7273 81.7209 11.0568C81.3951 10.3826 81.2322 9.59848 81.2322 8.70455C81.2322 7.81061 81.3951 7.02273 81.7209 6.34091C82.0504 5.6553 82.5088 5.12121 83.0959 4.73864C83.6868 4.35227 84.3762 4.15909 85.1641 4.15909C85.6186 4.15909 86.0675 4.23485 86.5107 4.38636C86.9538 4.53788 87.3572 4.78409 87.7209 5.125C88.0845 5.46212 88.3743 5.90909 88.5902 6.46591C88.8061 7.02273 88.9141 7.70833 88.9141 8.52273V9.09091H82.1868V7.93182H87.5504C87.5504 7.43939 87.4519 7 87.255 6.61364C87.0618 6.22727 86.7853 5.92235 86.4254 5.69886C86.0694 5.47538 85.6489 5.36364 85.1641 5.36364C84.63 5.36364 84.1679 5.49621 83.7777 5.76136C83.3913 6.02273 83.094 6.36364 82.8857 6.78409C82.6773 7.20455 82.5732 7.6553 82.5732 8.13636V8.90909C82.5732 9.56818 82.6868 10.1269 82.9141 10.5852C83.1451 11.0398 83.4652 11.3864 83.8743 11.625C84.2834 11.8598 84.7588 11.9773 85.3004 11.9773C85.6527 11.9773 85.9709 11.928 86.255 11.8295C86.5429 11.7273 86.791 11.5758 86.9993 11.375C87.2076 11.1705 87.3686 10.9167 87.4822 10.6136L88.7777 10.9773C88.6413 11.4167 88.4122 11.803 88.0902 12.1364C87.7682 12.4659 87.3705 12.7235 86.897 12.9091C86.4235 13.0909 85.8913 13.1818 85.3004 13.1818ZM91.7195 4.27273L93.8104 7.84091L95.9013 4.27273H97.4467L94.6286 8.63636L97.4467 13H95.9013L93.8104 9.61364L91.7195 13H90.174L92.9467 8.63636L90.174 4.27273H91.7195ZM103.156 4.27273V5.40909H98.6328V4.27273H103.156ZM99.951 2.18182H101.292V10.5C101.292 10.8788 101.347 11.1629 101.457 11.3523C101.57 11.5379 101.714 11.6629 101.888 11.7273C102.067 11.7879 102.254 11.8182 102.451 11.8182C102.599 11.8182 102.72 11.8106 102.815 11.7955C102.909 11.7765 102.985 11.7614 103.042 11.75L103.315 12.9545C103.224 12.9886 103.097 13.0227 102.934 13.0568C102.771 13.0947 102.565 13.1136 102.315 13.1136C101.936 13.1136 101.565 13.0322 101.201 12.8693C100.841 12.7064 100.542 12.4583 100.303 12.125C100.068 11.7917 99.951 11.3712 99.951 10.8636V2.18182ZM108.624 13.1818C107.836 13.1818 107.145 12.9943 106.55 12.6193C105.96 12.2443 105.497 11.7197 105.164 11.0455C104.835 10.3712 104.67 9.58333 104.67 8.68182C104.67 7.77273 104.835 6.97917 105.164 6.30114C105.497 5.62311 105.96 5.09659 106.55 4.72159C107.145 4.34659 107.836 4.15909 108.624 4.15909C109.412 4.15909 110.102 4.34659 110.692 4.72159C111.287 5.09659 111.749 5.62311 112.079 6.30114C112.412 6.97917 112.579 7.77273 112.579 8.68182C112.579 9.58333 112.412 10.3712 112.079 11.0455C111.749 11.7197 111.287 12.2443 110.692 12.6193C110.102 12.9943 109.412 13.1818 108.624 13.1818ZM108.624 11.9773C109.223 11.9773 109.715 11.8239 110.102 11.517C110.488 11.2102 110.774 10.8068 110.96 10.3068C111.145 9.80682 111.238 9.26515 111.238 8.68182C111.238 8.09848 111.145 7.55492 110.96 7.05114C110.774 6.54735 110.488 6.14015 110.102 5.82955C109.715 5.51894 109.223 5.36364 108.624 5.36364C108.026 5.36364 107.533 5.51894 107.147 5.82955C106.761 6.14015 106.475 6.54735 106.289 7.05114C106.103 7.55492 106.011 8.09848 106.011 8.68182C106.011 9.26515 106.103 9.80682 106.289 10.3068C106.475 10.8068 106.761 11.2102 107.147 11.517C107.533 11.8239 108.026 11.9773 108.624 11.9773ZM125.08 16.2727V11.6591H124.967C124.868 11.8182 124.728 12.0189 124.546 12.2614C124.364 12.5 124.105 12.714 123.768 12.9034C123.431 13.089 122.982 13.1818 122.421 13.1818C121.694 13.1818 121.052 12.9981 120.495 12.6307C119.938 12.2595 119.503 11.7367 119.188 11.0625C118.874 10.3845 118.717 9.58333 118.717 8.65909C118.717 7.74242 118.874 6.94697 119.188 6.27273C119.503 5.59848 119.94 5.07765 120.501 4.71023C121.061 4.3428 121.709 4.15909 122.444 4.15909C123.012 4.15909 123.461 4.25379 123.79 4.44318C124.124 4.62879 124.378 4.84091 124.552 5.07955C124.73 5.31439 124.868 5.50758 124.967 5.65909H125.126V4.27273H126.421V16.2727H125.08ZM122.603 11.9773C123.141 11.9773 123.595 11.8371 123.967 11.5568C124.338 11.2727 124.62 10.8807 124.813 10.3807C125.006 9.87689 125.103 9.29545 125.103 8.63636C125.103 7.98485 125.008 7.41477 124.819 6.92614C124.629 6.43371 124.349 6.05114 123.978 5.77841C123.607 5.50189 123.148 5.36364 122.603 5.36364C122.035 5.36364 121.561 5.50947 121.183 5.80114C120.808 6.08902 120.525 6.48106 120.336 6.97727C120.15 7.4697 120.058 8.02273 120.058 8.63636C120.058 9.25758 120.152 9.82197 120.342 10.3295C120.535 10.8333 120.819 11.2348 121.194 11.5341C121.573 11.8295 122.042 11.9773 122.603 11.9773ZM134.376 9.43182V4.27273H135.717V13H134.376V11.5227H134.285C134.08 11.9659 133.762 12.3428 133.33 12.6534C132.898 12.9602 132.353 13.1136 131.694 13.1136C131.148 13.1136 130.664 12.9943 130.239 12.7557C129.815 12.5133 129.482 12.1496 129.239 11.6648C128.997 11.1761 128.876 10.5606 128.876 9.81818V4.27273H130.217V9.72727C130.217 10.3636 130.395 10.8712 130.751 11.25C131.111 11.6288 131.569 11.8182 132.126 11.8182C132.459 11.8182 132.798 11.733 133.143 11.5625C133.491 11.392 133.783 11.1307 134.018 10.7784C134.256 10.4261 134.376 9.97727 134.376 9.43182ZM141.832 13.1818C140.991 13.1818 140.265 12.9962 139.656 12.625C139.049 12.25 138.582 11.7273 138.252 11.0568C137.926 10.3826 137.763 9.59848 137.763 8.70455C137.763 7.81061 137.926 7.02273 138.252 6.34091C138.582 5.6553 139.04 5.12121 139.627 4.73864C140.218 4.35227 140.907 4.15909 141.695 4.15909C142.15 4.15909 142.599 4.23485 143.042 4.38636C143.485 4.53788 143.888 4.78409 144.252 5.125C144.616 5.46212 144.906 5.90909 145.121 6.46591C145.337 7.02273 145.445 7.70833 145.445 8.52273V9.09091H138.718V7.93182H144.082C144.082 7.43939 143.983 7 143.786 6.61364C143.593 6.22727 143.317 5.92235 142.957 5.69886C142.601 5.47538 142.18 5.36364 141.695 5.36364C141.161 5.36364 140.699 5.49621 140.309 5.76136C139.923 6.02273 139.625 6.36364 139.417 6.78409C139.209 7.20455 139.104 7.6553 139.104 8.13636V8.90909C139.104 9.56818 139.218 10.1269 139.445 10.5852C139.676 11.0398 139.996 11.3864 140.406 11.625C140.815 11.8598 141.29 11.9773 141.832 11.9773C142.184 11.9773 142.502 11.928 142.786 11.8295C143.074 11.7273 143.322 11.5758 143.531 11.375C143.739 11.1705 143.9 10.9167 144.013 10.6136L145.309 10.9773C145.173 11.4167 144.943 11.803 144.621 12.1364C144.299 12.4659 143.902 12.7235 143.428 12.9091C142.955 13.0909 142.423 13.1818 141.832 13.1818ZM159.121 4.27273L155.894 13H154.531L151.303 4.27273H152.758L155.167 11.2273H155.258L157.667 4.27273H159.121ZM164.124 13.1818C163.336 13.1818 162.645 12.9943 162.05 12.6193C161.46 12.2443 160.997 11.7197 160.664 11.0455C160.335 10.3712 160.17 9.58333 160.17 8.68182C160.17 7.77273 160.335 6.97917 160.664 6.30114C160.997 5.62311 161.46 5.09659 162.05 4.72159C162.645 4.34659 163.336 4.15909 164.124 4.15909C164.912 4.15909 165.602 4.34659 166.192 4.72159C166.787 5.09659 167.249 5.62311 167.579 6.30114C167.912 6.97917 168.079 7.77273 168.079 8.68182C168.079 9.58333 167.912 10.3712 167.579 11.0455C167.249 11.7197 166.787 12.2443 166.192 12.6193C165.602 12.9943 164.912 13.1818 164.124 13.1818ZM164.124 11.9773C164.723 11.9773 165.215 11.8239 165.602 11.517C165.988 11.2102 166.274 10.8068 166.46 10.3068C166.645 9.80682 166.738 9.26515 166.738 8.68182C166.738 8.09848 166.645 7.55492 166.46 7.05114C166.274 6.54735 165.988 6.14015 165.602 5.82955C165.215 5.51894 164.723 5.36364 164.124 5.36364C163.526 5.36364 163.033 5.51894 162.647 5.82955C162.261 6.14015 161.975 6.54735 161.789 7.05114C161.603 7.55492 161.511 8.09848 161.511 8.68182C161.511 9.26515 161.603 9.80682 161.789 10.3068C161.975 10.8068 162.261 11.2102 162.647 11.517C163.033 11.8239 163.526 11.9773 164.124 11.9773ZM173.671 13.1818C172.853 13.1818 172.148 12.9886 171.558 12.6023C170.967 12.2159 170.512 11.6837 170.194 11.0057C169.876 10.3277 169.717 9.55303 169.717 8.68182C169.717 7.79545 169.879 7.01326 170.205 6.33523C170.535 5.65341 170.993 5.12121 171.58 4.73864C172.171 4.35227 172.861 4.15909 173.648 4.15909C174.262 4.15909 174.815 4.27273 175.308 4.5C175.8 4.72727 176.203 5.04545 176.518 5.45455C176.832 5.86364 177.027 6.34091 177.103 6.88636H175.762C175.66 6.48864 175.433 6.13636 175.08 5.82955C174.732 5.51894 174.262 5.36364 173.671 5.36364C173.148 5.36364 172.69 5.5 172.296 5.77273C171.906 6.04167 171.601 6.42235 171.381 6.91477C171.165 7.40341 171.058 7.97727 171.058 8.63636C171.058 9.31061 171.164 9.89773 171.376 10.3977C171.592 10.8977 171.895 11.286 172.285 11.5625C172.679 11.839 173.141 11.9773 173.671 11.9773C174.02 11.9773 174.336 11.9167 174.62 11.7955C174.904 11.6742 175.145 11.5 175.342 11.2727C175.539 11.0455 175.679 10.7727 175.762 10.4545H177.103C177.027 10.9697 176.84 11.4337 176.54 11.8466C176.245 12.2557 175.853 12.5814 175.364 12.8239C174.879 13.0625 174.315 13.1818 173.671 13.1818ZM182.722 13.1818C181.881 13.1818 181.156 12.9962 180.546 12.625C179.94 12.25 179.472 11.7273 179.143 11.0568C178.817 10.3826 178.654 9.59848 178.654 8.70455C178.654 7.81061 178.817 7.02273 179.143 6.34091C179.472 5.6553 179.931 5.12121 180.518 4.73864C181.109 4.35227 181.798 4.15909 182.586 4.15909C183.04 4.15909 183.489 4.23485 183.933 4.38636C184.376 4.53788 184.779 4.78409 185.143 5.125C185.506 5.46212 185.796 5.90909 186.012 6.46591C186.228 7.02273 186.336 7.70833 186.336 8.52273V9.09091H179.609V7.93182H184.972C184.972 7.43939 184.874 7 184.677 6.61364C184.484 6.22727 184.207 5.92235 183.847 5.69886C183.491 5.47538 183.071 5.36364 182.586 5.36364C182.052 5.36364 181.59 5.49621 181.2 5.76136C180.813 6.02273 180.516 6.36364 180.308 6.78409C180.099 7.20455 179.995 7.6553 179.995 8.13636V8.90909C179.995 9.56818 180.109 10.1269 180.336 10.5852C180.567 11.0398 180.887 11.3864 181.296 11.625C181.705 11.8598 182.181 11.9773 182.722 11.9773C183.075 11.9773 183.393 11.928 183.677 11.8295C183.965 11.7273 184.213 11.5758 184.421 11.375C184.629 11.1705 184.79 10.9167 184.904 10.6136L186.2 10.9773C186.063 11.4167 185.834 11.803 185.512 12.1364C185.19 12.4659 184.792 12.7235 184.319 12.9091C183.845 13.0909 183.313 13.1818 182.722 13.1818ZM183.7 3.22727L182.518 1.63636L181.336 3.22727H180.063V3.13636L181.904 0.772727H183.131L184.972 3.13636V3.22727H183.7ZM196.171 13.1818C195.444 13.1818 194.802 12.9981 194.245 12.6307C193.688 12.2595 193.253 11.7367 192.938 11.0625C192.624 10.3845 192.467 9.58333 192.467 8.65909C192.467 7.74242 192.624 6.94697 192.938 6.27273C193.253 5.59848 193.69 5.07765 194.251 4.71023C194.811 4.3428 195.459 4.15909 196.194 4.15909C196.762 4.15909 197.211 4.25379 197.54 4.44318C197.874 4.62879 198.128 4.84091 198.302 5.07955C198.48 5.31439 198.618 5.50758 198.717 5.65909H198.83V1.36364H200.171V13H198.876V11.6591H198.717C198.618 11.8182 198.478 12.0189 198.296 12.2614C198.114 12.5 197.855 12.714 197.518 12.9034C197.181 13.089 196.732 13.1818 196.171 13.1818ZM196.353 11.9773C196.891 11.9773 197.345 11.8371 197.717 11.5568C198.088 11.2727 198.37 10.8807 198.563 10.3807C198.756 9.87689 198.853 9.29545 198.853 8.63636C198.853 7.98485 198.758 7.41477 198.569 6.92614C198.379 6.43371 198.099 6.05114 197.728 5.77841C197.357 5.50189 196.898 5.36364 196.353 5.36364C195.785 5.36364 195.311 5.50947 194.933 5.80114C194.558 6.08902 194.275 6.48106 194.086 6.97727C193.9 7.4697 193.808 8.02273 193.808 8.63636C193.808 9.25758 193.902 9.82197 194.092 10.3295C194.285 10.8333 194.569 11.2348 194.944 11.5341C195.323 11.8295 195.792 11.9773 196.353 11.9773ZM206.472 13.1818C205.631 13.1818 204.906 12.9962 204.296 12.625C203.69 12.25 203.222 11.7273 202.893 11.0568C202.567 10.3826 202.404 9.59848 202.404 8.70455C202.404 7.81061 202.567 7.02273 202.893 6.34091C203.222 5.6553 203.681 5.12121 204.268 4.73864C204.859 4.35227 205.548 4.15909 206.336 4.15909C206.79 4.15909 207.239 4.23485 207.683 4.38636C208.126 4.53788 208.529 4.78409 208.893 5.125C209.256 5.46212 209.546 5.90909 209.762 6.46591C209.978 7.02273 210.086 7.70833 210.086 8.52273V9.09091H203.359V7.93182H208.722C208.722 7.43939 208.624 7 208.427 6.61364C208.234 6.22727 207.957 5.92235 207.597 5.69886C207.241 5.47538 206.821 5.36364 206.336 5.36364C205.802 5.36364 205.34 5.49621 204.95 5.76136C204.563 6.02273 204.266 6.36364 204.058 6.78409C203.849 7.20455 203.745 7.6553 203.745 8.13636V8.90909C203.745 9.56818 203.859 10.1269 204.086 10.5852C204.317 11.0398 204.637 11.3864 205.046 11.625C205.455 11.8598 205.931 11.9773 206.472 11.9773C206.825 11.9773 207.143 11.928 207.427 11.8295C207.715 11.7273 207.963 11.5758 208.171 11.375C208.379 11.1705 208.54 10.9167 208.654 10.6136L209.95 10.9773C209.813 11.4167 209.584 11.803 209.262 12.1364C208.94 12.4659 208.542 12.7235 208.069 12.9091C207.595 13.0909 207.063 13.1818 206.472 13.1818ZM218.308 6.22727L217.103 6.56818C217.027 6.36742 216.915 6.17235 216.768 5.98295C216.624 5.78977 216.427 5.63068 216.177 5.50568C215.927 5.38068 215.607 5.31818 215.217 5.31818C214.683 5.31818 214.237 5.44129 213.881 5.6875C213.529 5.92992 213.353 6.23864 213.353 6.61364C213.353 6.94697 213.474 7.21023 213.717 7.40341C213.959 7.59659 214.338 7.75758 214.853 7.88636L216.148 8.20455C216.929 8.39394 217.51 8.68371 217.893 9.07386C218.275 9.46023 218.467 9.95833 218.467 10.5682C218.467 11.0682 218.323 11.5152 218.035 11.9091C217.751 12.303 217.353 12.6136 216.842 12.8409C216.33 13.0682 215.736 13.1818 215.058 13.1818C214.167 13.1818 213.431 12.9886 212.847 12.6023C212.264 12.2159 211.895 11.6515 211.739 10.9091L213.012 10.5909C213.133 11.0606 213.362 11.4129 213.7 11.6477C214.04 11.8826 214.486 12 215.035 12C215.66 12 216.156 11.8674 216.523 11.6023C216.895 11.3333 217.08 11.0114 217.08 10.6364C217.08 10.3333 216.974 10.0795 216.762 9.875C216.55 9.66667 216.224 9.51136 215.785 9.40909L214.33 9.06818C213.531 8.87879 212.944 8.58523 212.569 8.1875C212.198 7.78598 212.012 7.28409 212.012 6.68182C212.012 6.18939 212.15 5.75379 212.427 5.375C212.707 4.99621 213.088 4.69886 213.569 4.48295C214.054 4.26705 214.603 4.15909 215.217 4.15909C216.08 4.15909 216.758 4.34848 217.251 4.72727C217.747 5.10606 218.099 5.60606 218.308 6.22727ZM224.144 13.1818C223.303 13.1818 222.578 12.9962 221.968 12.625C221.362 12.25 220.894 11.7273 220.565 11.0568C220.239 10.3826 220.076 9.59848 220.076 8.70455C220.076 7.81061 220.239 7.02273 220.565 6.34091C220.894 5.6553 221.353 5.12121 221.94 4.73864C222.531 4.35227 223.22 4.15909 224.008 4.15909C224.462 4.15909 224.911 4.23485 225.354 4.38636C225.798 4.53788 226.201 4.78409 226.565 5.125C226.928 5.46212 227.218 5.90909 227.434 6.46591C227.65 7.02273 227.758 7.70833 227.758 8.52273V9.09091H221.031V7.93182H226.394C226.394 7.43939 226.296 7 226.099 6.61364C225.906 6.22727 225.629 5.92235 225.269 5.69886C224.913 5.47538 224.493 5.36364 224.008 5.36364C223.474 5.36364 223.012 5.49621 222.621 5.76136C222.235 6.02273 221.938 6.36364 221.729 6.78409C221.521 7.20455 221.417 7.6553 221.417 8.13636V8.90909C221.417 9.56818 221.531 10.1269 221.758 10.5852C221.989 11.0398 222.309 11.3864 222.718 11.625C223.127 11.8598 223.603 11.9773 224.144 11.9773C224.496 11.9773 224.815 11.928 225.099 11.8295C225.387 11.7273 225.635 11.5758 225.843 11.375C226.051 11.1705 226.212 10.9167 226.326 10.6136L227.621 10.9773C227.485 11.4167 227.256 11.803 226.934 12.1364C226.612 12.4659 226.214 12.7235 225.741 12.9091C225.267 13.0909 224.735 13.1818 224.144 13.1818ZM229.798 4.27273H231.138V13.6364C231.138 14.1742 231.046 14.6402 230.86 15.0341C230.678 15.428 230.402 15.733 230.031 15.9489C229.663 16.1648 229.199 16.2727 228.638 16.2727C228.593 16.2727 228.548 16.2727 228.502 16.2727C228.457 16.2727 228.411 16.2727 228.366 16.2727V15.0227C228.411 15.0227 228.453 15.0227 228.491 15.0227C228.529 15.0227 228.57 15.0227 228.616 15.0227C229.025 15.0227 229.324 14.9015 229.513 14.6591C229.703 14.4205 229.798 14.0795 229.798 13.6364V4.27273ZM230.457 2.81818C230.195 2.81818 229.97 2.72917 229.781 2.55114C229.595 2.37311 229.502 2.15909 229.502 1.90909C229.502 1.65909 229.595 1.44508 229.781 1.26705C229.97 1.08902 230.195 1 230.457 1C230.718 1 230.942 1.08902 231.127 1.26705C231.317 1.44508 231.411 1.65909 231.411 1.90909C231.411 2.15909 231.317 2.37311 231.127 2.55114C230.942 2.72917 230.718 2.81818 230.457 2.81818ZM236.163 13.2045C235.61 13.2045 235.108 13.1004 234.657 12.892C234.206 12.6799 233.848 12.375 233.583 11.9773C233.318 11.5758 233.185 11.0909 233.185 10.5227C233.185 10.0227 233.284 9.61742 233.481 9.30682C233.678 8.99242 233.941 8.74621 234.271 8.56818C234.6 8.39015 234.964 8.25758 235.362 8.17045C235.763 8.07955 236.166 8.00758 236.572 7.95455C237.102 7.88636 237.532 7.83523 237.862 7.80114C238.195 7.76326 238.437 7.70076 238.589 7.61364C238.744 7.52652 238.822 7.375 238.822 7.15909V7.11364C238.822 6.55303 238.668 6.11742 238.362 5.80682C238.058 5.49621 237.598 5.34091 236.981 5.34091C236.341 5.34091 235.839 5.48106 235.475 5.76136C235.112 6.04167 234.856 6.34091 234.708 6.65909L233.435 6.20455C233.663 5.67424 233.966 5.26136 234.344 4.96591C234.727 4.66667 235.144 4.45833 235.594 4.34091C236.049 4.2197 236.496 4.15909 236.935 4.15909C237.216 4.15909 237.538 4.19318 237.901 4.26136C238.269 4.32576 238.623 4.46023 238.964 4.66477C239.308 4.86932 239.594 5.17803 239.822 5.59091C240.049 6.00379 240.163 6.55682 240.163 7.25V13H238.822V11.8182H238.754C238.663 12.0076 238.511 12.2102 238.299 12.4261C238.087 12.642 237.805 12.8258 237.452 12.9773C237.1 13.1288 236.67 13.2045 236.163 13.2045ZM236.367 12C236.897 12 237.344 11.8958 237.708 11.6875C238.076 11.4792 238.352 11.2102 238.538 10.8807C238.727 10.5511 238.822 10.2045 238.822 9.84091V8.61364C238.765 8.68182 238.64 8.74432 238.447 8.80114C238.257 8.85417 238.038 8.90151 237.788 8.94318C237.541 8.98106 237.301 9.01515 237.066 9.04545C236.835 9.07197 236.647 9.0947 236.504 9.11364C236.155 9.15909 235.829 9.23295 235.526 9.33523C235.227 9.43371 234.985 9.58333 234.799 9.78409C234.617 9.98106 234.526 10.25 234.526 10.5909C234.526 11.0568 234.699 11.4091 235.043 11.6477C235.392 11.8826 235.833 12 236.367 12ZM6.43679 37.1818C5.61861 37.1818 4.91406 36.9886 4.32315 36.6023C3.73224 36.2159 3.2777 35.6837 2.95952 35.0057C2.64134 34.3277 2.48224 33.553 2.48224 32.6818C2.48224 31.7955 2.64512 31.0133 2.97088 30.3352C3.30043 29.6534 3.75876 29.1212 4.34588 28.7386C4.93679 28.3523 5.62618 28.1591 6.41406 28.1591C7.0277 28.1591 7.58073 28.2727 8.07315 28.5C8.56558 28.7273 8.96899 29.0455 9.28338 29.4545C9.59777 29.8636 9.79285 30.3409 9.86861 30.8864H8.5277C8.42543 30.4886 8.19815 30.1364 7.84588 29.8295C7.4974 29.5189 7.0277 29.3636 6.43679 29.3636C5.91406 29.3636 5.45573 29.5 5.06179 29.7727C4.67164 30.0417 4.36671 30.4223 4.14702 30.9148C3.93111 31.4034 3.82315 31.9773 3.82315 32.6364C3.82315 33.3106 3.92921 33.8977 4.14134 34.3977C4.35724 34.8977 4.66027 35.286 5.05043 35.5625C5.44437 35.839 5.90649 35.9773 6.43679 35.9773C6.78527 35.9773 7.10156 35.9167 7.38565 35.7955C7.66974 35.6742 7.91027 35.5 8.10724 35.2727C8.30421 35.0455 8.44437 34.7727 8.5277 34.4545H9.86861C9.79285 34.9697 9.60535 35.4337 9.30611 35.8466C9.01065 36.2557 8.61861 36.5814 8.12997 36.8239C7.64512 37.0625 7.08073 37.1818 6.43679 37.1818ZM11.8288 37V28.2727H13.1243V29.5909H13.2152C13.3743 29.1591 13.6622 28.8087 14.0788 28.5398C14.4955 28.2708 14.9652 28.1364 15.4879 28.1364C15.5864 28.1364 15.7095 28.1383 15.8572 28.142C16.005 28.1458 16.1167 28.1515 16.1925 28.1591V29.5227C16.147 29.5114 16.0429 29.4943 15.88 29.4716C15.7209 29.4451 15.5523 29.4318 15.3743 29.4318C14.95 29.4318 14.5713 29.5208 14.2379 29.6989C13.9084 29.8731 13.647 30.1155 13.4538 30.4261C13.2644 30.733 13.1697 31.0833 13.1697 31.4773V37H11.8288ZM17.782 37V28.2727H19.1229V37H17.782ZM18.4638 26.8182C18.2024 26.8182 17.977 26.7292 17.7876 26.5511C17.602 26.3731 17.5092 26.1591 17.5092 25.9091C17.5092 25.6591 17.602 25.4451 17.7876 25.267C17.977 25.089 18.2024 25 18.4638 25C18.7251 25 18.9486 25.089 19.1342 25.267C19.3236 25.4451 19.4183 25.6591 19.4183 25.9091C19.4183 26.1591 19.3236 26.3731 19.1342 26.5511C18.9486 26.7292 18.7251 26.8182 18.4638 26.8182ZM21.5788 40.2727V28.2727H22.8743V29.6591H23.0334C23.1319 29.5076 23.2682 29.3144 23.4425 29.0795C23.6205 28.8409 23.8743 28.6288 24.2038 28.4432C24.5372 28.2538 24.9879 28.1591 25.5561 28.1591C26.291 28.1591 26.9387 28.3428 27.4993 28.7102C28.0599 29.0777 28.4974 29.5985 28.8118 30.2727C29.1262 30.947 29.2834 31.7424 29.2834 32.6591C29.2834 33.5833 29.1262 34.3845 28.8118 35.0625C28.4974 35.7367 28.0618 36.2595 27.505 36.6307C26.9482 36.9981 26.3061 37.1818 25.5788 37.1818C25.0182 37.1818 24.5694 37.089 24.2322 36.9034C23.8951 36.714 23.6357 36.5 23.4538 36.2614C23.272 36.0189 23.1319 35.8182 23.0334 35.6591H22.9197V40.2727H21.5788ZM22.897 32.6364C22.897 33.2955 22.9936 33.8769 23.1868 34.3807C23.38 34.8807 23.6622 35.2727 24.0334 35.5568C24.4046 35.8371 24.8591 35.9773 25.397 35.9773C25.9576 35.9773 26.4254 35.8295 26.8004 35.5341C27.1792 35.2348 27.4633 34.8333 27.6527 34.3295C27.8459 33.822 27.9425 33.2576 27.9425 32.6364C27.9425 32.0227 27.8478 31.4697 27.6584 30.9773C27.4728 30.4811 27.1906 30.089 26.8118 29.8011C26.4368 29.5095 25.9652 29.3636 25.397 29.3636C24.8516 29.3636 24.3932 29.5019 24.022 29.7784C23.6508 30.0511 23.3705 30.4337 23.1811 30.9261C22.9917 31.4148 22.897 31.9848 22.897 32.6364ZM35.1243 28.2727V29.4091H30.6016V28.2727H35.1243ZM31.9197 26.1818H33.2607V34.5C33.2607 34.8788 33.3156 35.1629 33.4254 35.3523C33.5391 35.5379 33.683 35.6629 33.8572 35.7273C34.0353 35.7879 34.2228 35.8182 34.4197 35.8182C34.5675 35.8182 34.6887 35.8106 34.7834 35.7955C34.8781 35.7765 34.9538 35.7614 35.0107 35.75L35.2834 36.9545C35.1925 36.9886 35.0656 37.0227 34.9027 37.0568C34.7398 37.0947 34.5334 37.1136 34.2834 37.1136C33.9046 37.1136 33.5334 37.0322 33.1697 36.8693C32.8099 36.7064 32.5107 36.4583 32.272 36.125C32.0372 35.7917 31.9197 35.3712 31.9197 34.8636V26.1818ZM40.593 37.1818C39.8052 37.1818 39.1139 36.9943 38.5192 36.6193C37.9283 36.2443 37.4661 35.7197 37.1328 35.0455C36.8033 34.3712 36.6385 33.5833 36.6385 32.6818C36.6385 31.7727 36.8033 30.9792 37.1328 30.3011C37.4661 29.6231 37.9283 29.0966 38.5192 28.7216C39.1139 28.3466 39.8052 28.1591 40.593 28.1591C41.3809 28.1591 42.0703 28.3466 42.6612 28.7216C43.2559 29.0966 43.718 29.6231 44.0476 30.3011C44.3809 30.9792 44.5476 31.7727 44.5476 32.6818C44.5476 33.5833 44.3809 34.3712 44.0476 35.0455C43.718 35.7197 43.2559 36.2443 42.6612 36.6193C42.0703 36.9943 41.3809 37.1818 40.593 37.1818ZM40.593 35.9773C41.1915 35.9773 41.6839 35.8239 42.0703 35.517C42.4567 35.2102 42.7427 34.8068 42.9283 34.3068C43.1139 33.8068 43.2067 33.2652 43.2067 32.6818C43.2067 32.0985 43.1139 31.5549 42.9283 31.0511C42.7427 30.5473 42.4567 30.1402 42.0703 29.8295C41.6839 29.5189 41.1915 29.3636 40.593 29.3636C39.9946 29.3636 39.5021 29.5189 39.1158 29.8295C38.7294 30.1402 38.4434 30.5473 38.2578 31.0511C38.0722 31.5549 37.9794 32.0985 37.9794 32.6818C37.9794 33.2652 38.0722 33.8068 38.2578 34.3068C38.4434 34.8068 38.7294 35.2102 39.1158 35.517C39.5021 35.8239 39.9946 35.9773 40.593 35.9773ZM50.1172 40.4545C49.4695 40.4545 48.9126 40.3712 48.4467 40.2045C47.9808 40.0417 47.5926 39.8258 47.282 39.5568C46.9751 39.2917 46.7308 39.0076 46.549 38.7045L47.6172 37.9545C47.7384 38.1136 47.8918 38.2955 48.0774 38.5C48.263 38.7083 48.5168 38.8883 48.8388 39.0398C49.1645 39.1951 49.5907 39.2727 50.1172 39.2727C50.8217 39.2727 51.4032 39.1023 51.8615 38.7614C52.3198 38.4205 52.549 37.8864 52.549 37.1591V35.3864H52.4354C52.3369 35.5455 52.1967 35.7424 52.0149 35.9773C51.8369 36.2083 51.5793 36.4148 51.2422 36.5966C50.9089 36.7746 50.4581 36.8636 49.8899 36.8636C49.1854 36.8636 48.5528 36.697 47.9922 36.3636C47.4354 36.0303 46.9941 35.5455 46.6683 34.9091C46.3464 34.2727 46.1854 33.5 46.1854 32.5909C46.1854 31.697 46.3426 30.9186 46.657 30.2557C46.9714 29.589 47.4089 29.0739 47.9695 28.7102C48.5301 28.3428 49.1778 28.1591 49.9126 28.1591C50.4808 28.1591 50.9316 28.2538 51.2649 28.4432C51.602 28.6288 51.8596 28.8409 52.0376 29.0795C52.2195 29.3144 52.3596 29.5076 52.4581 29.6591H52.5945V28.2727H53.8899V37.25C53.8899 38 53.7195 38.6098 53.3786 39.0795C53.0414 39.553 52.5869 39.8996 52.0149 40.1193C51.4467 40.3428 50.8142 40.4545 50.1172 40.4545ZM50.0717 35.6591C50.6096 35.6591 51.0642 35.536 51.4354 35.2898C51.8066 35.0436 52.0888 34.6894 52.282 34.2273C52.4751 33.7652 52.5717 33.2121 52.5717 32.5682C52.5717 31.9394 52.477 31.3845 52.2876 30.9034C52.0982 30.4223 51.8179 30.0455 51.4467 29.7727C51.0755 29.5 50.6172 29.3636 50.0717 29.3636C49.5036 29.3636 49.0301 29.5076 48.6513 29.7955C48.2763 30.0833 47.9941 30.4697 47.8047 30.9545C47.6191 31.4394 47.5263 31.9773 47.5263 32.5682C47.5263 33.1742 47.621 33.7102 47.8104 34.1761C48.0036 34.6383 48.2876 35.0019 48.6626 35.267C49.0414 35.5284 49.5111 35.6591 50.0717 35.6591ZM56.3445 37V28.2727H57.6399V29.5909H57.7308C57.8899 29.1591 58.1778 28.8087 58.5945 28.5398C59.0111 28.2708 59.4808 28.1364 60.0036 28.1364C60.102 28.1364 60.2251 28.1383 60.3729 28.142C60.5206 28.1458 60.6323 28.1515 60.7081 28.1591V29.5227C60.6626 29.5114 60.5585 29.4943 60.3956 29.4716C60.2365 29.4451 60.0679 29.4318 59.8899 29.4318C59.4657 29.4318 59.0869 29.5208 58.7536 29.6989C58.424 29.8731 58.1626 30.1155 57.9695 30.4261C57.7801 30.733 57.6854 31.0833 57.6854 31.4773V37H56.3445ZM64.8658 37.2045C64.3127 37.2045 63.8108 37.1004 63.3601 36.892C62.9093 36.6799 62.5514 36.375 62.2862 35.9773C62.0211 35.5758 61.8885 35.0909 61.8885 34.5227C61.8885 34.0227 61.987 33.6174 62.1839 33.3068C62.3809 32.9924 62.6442 32.7462 62.9737 32.5682C63.3033 32.3902 63.6669 32.2576 64.0646 32.1705C64.4661 32.0795 64.8696 32.0076 65.2749 31.9545C65.8052 31.8864 66.2351 31.8352 66.5646 31.8011C66.898 31.7633 67.1404 31.7008 67.2919 31.6136C67.4472 31.5265 67.5249 31.375 67.5249 31.1591V31.1136C67.5249 30.553 67.3714 30.1174 67.0646 29.8068C66.7616 29.4962 66.3014 29.3409 65.6839 29.3409C65.0438 29.3409 64.5419 29.4811 64.1783 29.7614C63.8146 30.0417 63.5589 30.3409 63.4112 30.6591L62.1385 30.2045C62.3658 29.6742 62.6688 29.2614 63.0476 28.9659C63.4302 28.6667 63.8468 28.4583 64.2976 28.3409C64.7521 28.2197 65.1991 28.1591 65.6385 28.1591C65.9188 28.1591 66.2408 28.1932 66.6044 28.2614C66.9718 28.3258 67.326 28.4602 67.6669 28.6648C68.0116 28.8693 68.2976 29.178 68.5249 29.5909C68.7521 30.0038 68.8658 30.5568 68.8658 31.25V37H67.5249V35.8182H67.4567C67.3658 36.0076 67.2143 36.2102 67.0021 36.4261C66.79 36.642 66.5078 36.8258 66.1555 36.9773C65.8033 37.1288 65.3733 37.2045 64.8658 37.2045ZM65.0703 36C65.6006 36 66.0476 35.8958 66.4112 35.6875C66.7786 35.4792 67.0552 35.2102 67.2408 34.8807C67.4302 34.5511 67.5249 34.2045 67.5249 33.8409V32.6136C67.468 32.6818 67.343 32.7443 67.1499 32.8011C66.9605 32.8542 66.7408 32.9015 66.4908 32.9432C66.2446 32.9811 66.004 33.0152 65.7692 33.0455C65.5381 33.072 65.3506 33.0947 65.2067 33.1136C64.8582 33.1591 64.5324 33.233 64.2294 33.3352C63.9302 33.4337 63.6877 33.5833 63.5021 33.7841C63.3203 33.9811 63.2294 34.25 63.2294 34.5909C63.2294 35.0568 63.4018 35.4091 63.7464 35.6477C64.0949 35.8826 64.5362 36 65.0703 36ZM75.1996 28.2727V29.4091H70.495V28.2727H75.1996ZM71.9041 37V27.0682C71.9041 26.5682 72.0215 26.1515 72.2564 25.8182C72.4912 25.4848 72.7962 25.2348 73.1712 25.0682C73.5462 24.9015 73.942 24.8182 74.3587 24.8182C74.6882 24.8182 74.9571 24.8447 75.1655 24.8977C75.3738 24.9508 75.5291 25 75.6314 25.0455L75.245 26.2045C75.1768 26.1818 75.0821 26.1534 74.9609 26.1193C74.8435 26.0852 74.6882 26.0682 74.495 26.0682C74.0518 26.0682 73.7318 26.1799 73.5348 26.4034C73.3416 26.6269 73.245 26.9545 73.245 27.3864V37H71.9041ZM79.397 37.2045C78.844 37.2045 78.3421 37.1004 77.8913 36.892C77.4406 36.6799 77.0826 36.375 76.8175 35.9773C76.5523 35.5758 76.4197 35.0909 76.4197 34.5227C76.4197 34.0227 76.5182 33.6174 76.7152 33.3068C76.9122 32.9924 77.1754 32.7462 77.505 32.5682C77.8345 32.3902 78.1982 32.2576 78.5959 32.1705C78.9974 32.0795 79.4008 32.0076 79.8061 31.9545C80.3364 31.8864 80.7663 31.8352 81.0959 31.8011C81.4292 31.7633 81.6716 31.7008 81.8232 31.6136C81.9785 31.5265 82.0561 31.375 82.0561 31.1591V31.1136C82.0561 30.553 81.9027 30.1174 81.5959 29.8068C81.2929 29.4962 80.8326 29.3409 80.2152 29.3409C79.575 29.3409 79.0732 29.4811 78.7095 29.7614C78.3459 30.0417 78.0902 30.3409 77.9425 30.6591L76.6697 30.2045C76.897 29.6742 77.2 29.2614 77.5788 28.9659C77.9614 28.6667 78.3781 28.4583 78.8288 28.3409C79.2834 28.2197 79.7304 28.1591 80.1697 28.1591C80.45 28.1591 80.772 28.1932 81.1357 28.2614C81.5031 28.3258 81.8572 28.4602 82.1982 28.6648C82.5429 28.8693 82.8288 29.178 83.0561 29.5909C83.2834 30.0038 83.397 30.5568 83.397 31.25V37H82.0561V35.8182H81.9879C81.897 36.0076 81.7455 36.2102 81.5334 36.4261C81.3213 36.642 81.0391 36.8258 80.6868 36.9773C80.3345 37.1288 79.9046 37.2045 79.397 37.2045ZM79.6016 36C80.1319 36 80.5788 35.8958 80.9425 35.6875C81.3099 35.4792 81.5864 35.2102 81.772 34.8807C81.9614 34.5511 82.0561 34.2045 82.0561 33.8409V32.6136C81.9993 32.6818 81.8743 32.7443 81.6811 32.8011C81.4917 32.8542 81.272 32.9015 81.022 32.9432C80.7758 32.9811 80.5353 33.0152 80.3004 33.0455C80.0694 33.072 79.8819 33.0947 79.7379 33.1136C79.3894 33.1591 79.0637 33.233 78.7607 33.3352C78.4614 33.4337 78.219 33.5833 78.0334 33.7841C77.8516 33.9811 77.7607 34.25 77.7607 34.5909C77.7607 35.0568 77.933 35.4091 78.2777 35.6477C78.6262 35.8826 79.0675 36 79.6016 36ZM85.8445 37V28.2727H87.1399V29.5909H87.2308C87.3899 29.1591 87.6778 28.8087 88.0945 28.5398C88.5111 28.2708 88.9808 28.1364 89.5036 28.1364C89.602 28.1364 89.7251 28.1383 89.8729 28.142C90.0206 28.1458 90.1323 28.1515 90.2081 28.1591V29.5227C90.1626 29.5114 90.0585 29.4943 89.8956 29.4716C89.7365 29.4451 89.5679 29.4318 89.3899 29.4318C88.9657 29.4318 88.5869 29.5208 88.2536 29.6989C87.924 29.8731 87.6626 30.1155 87.4695 30.4261C87.2801 30.733 87.1854 31.0833 87.1854 31.4773V37H85.8445ZM99.843 37.1818C99.0552 37.1818 98.3639 36.9943 97.7692 36.6193C97.1783 36.2443 96.7161 35.7197 96.3828 35.0455C96.0533 34.3712 95.8885 33.5833 95.8885 32.6818C95.8885 31.7727 96.0533 30.9792 96.3828 30.3011C96.7161 29.6231 97.1783 29.0966 97.7692 28.7216C98.3639 28.3466 99.0552 28.1591 99.843 28.1591C100.631 28.1591 101.32 28.3466 101.911 28.7216C102.506 29.0966 102.968 29.6231 103.298 30.3011C103.631 30.9792 103.798 31.7727 103.798 32.6818C103.798 33.5833 103.631 34.3712 103.298 35.0455C102.968 35.7197 102.506 36.2443 101.911 36.6193C101.32 36.9943 100.631 37.1818 99.843 37.1818ZM99.843 35.9773C100.442 35.9773 100.934 35.8239 101.32 35.517C101.707 35.2102 101.993 34.8068 102.178 34.3068C102.364 33.8068 102.457 33.2652 102.457 32.6818C102.457 32.0985 102.364 31.5549 102.178 31.0511C101.993 30.5473 101.707 30.1402 101.32 29.8295C100.934 29.5189 100.442 29.3636 99.843 29.3636C99.2446 29.3636 98.7521 29.5189 98.3658 29.8295C97.9794 30.1402 97.6934 30.5473 97.5078 31.0511C97.3222 31.5549 97.2294 32.0985 97.2294 32.6818C97.2294 33.2652 97.3222 33.8068 97.5078 34.3068C97.6934 34.8068 97.9794 35.2102 98.3658 35.517C98.7521 35.8239 99.2446 35.9773 99.843 35.9773ZM111.344 33.4318V28.2727H112.685V37H111.344V35.5227H111.254C111.049 35.9659 110.731 36.3428 110.299 36.6534C109.867 36.9602 109.322 37.1136 108.663 37.1136C108.117 37.1136 107.632 36.9943 107.208 36.7557C106.784 36.5133 106.451 36.1496 106.208 35.6648C105.966 35.1761 105.844 34.5606 105.844 33.8182V28.2727H107.185V33.7273C107.185 34.3636 107.363 34.8712 107.719 35.25C108.079 35.6288 108.538 35.8182 109.094 35.8182C109.428 35.8182 109.767 35.733 110.112 35.5625C110.46 35.392 110.752 35.1307 110.987 34.7784C111.225 34.4261 111.344 33.9773 111.344 33.4318ZM122.937 37.1818C122.21 37.1818 121.567 36.9981 121.011 36.6307C120.454 36.2595 120.018 35.7367 119.704 35.0625C119.389 34.3845 119.232 33.5833 119.232 32.6591C119.232 31.7424 119.389 30.947 119.704 30.2727C120.018 29.5985 120.456 29.0777 121.016 28.7102C121.577 28.3428 122.225 28.1591 122.96 28.1591C123.528 28.1591 123.977 28.2538 124.306 28.4432C124.639 28.6288 124.893 28.8409 125.067 29.0795C125.246 29.3144 125.384 29.5076 125.482 29.6591H125.596V25.3636H126.937V37H125.641V35.6591H125.482C125.384 35.8182 125.244 36.0189 125.062 36.2614C124.88 36.5 124.621 36.714 124.283 36.9034C123.946 37.089 123.497 37.1818 122.937 37.1818ZM123.119 35.9773C123.656 35.9773 124.111 35.8371 124.482 35.5568C124.853 35.2727 125.136 34.8807 125.329 34.3807C125.522 33.8769 125.619 33.2955 125.619 32.6364C125.619 31.9848 125.524 31.4148 125.335 30.9261C125.145 30.4337 124.865 30.0511 124.494 29.7784C124.122 29.5019 123.664 29.3636 123.119 29.3636C122.55 29.3636 122.077 29.5095 121.698 29.8011C121.323 30.089 121.041 30.4811 120.852 30.9773C120.666 31.4697 120.573 32.0227 120.573 32.6364C120.573 33.2576 120.668 33.822 120.857 34.3295C121.05 34.8333 121.335 35.2348 121.71 35.5341C122.088 35.8295 122.558 35.9773 123.119 35.9773ZM133.238 37.1818C132.397 37.1818 131.672 36.9962 131.062 36.625C130.456 36.25 129.988 35.7273 129.658 35.0568C129.333 34.3826 129.17 33.5985 129.17 32.7045C129.17 31.8106 129.333 31.0227 129.658 30.3409C129.988 29.6553 130.446 29.1212 131.033 28.7386C131.624 28.3523 132.314 28.1591 133.102 28.1591C133.556 28.1591 134.005 28.2348 134.448 28.3864C134.891 28.5379 135.295 28.7841 135.658 29.125C136.022 29.4621 136.312 29.9091 136.528 30.4659C136.744 31.0227 136.852 31.7083 136.852 32.5227V33.0909H130.124V31.9318H135.488C135.488 31.4394 135.389 31 135.192 30.6136C134.999 30.2273 134.723 29.9223 134.363 29.6989C134.007 29.4754 133.586 29.3636 133.102 29.3636C132.567 29.3636 132.105 29.4962 131.715 29.7614C131.329 30.0227 131.031 30.3636 130.823 30.7841C130.615 31.2045 130.511 31.6553 130.511 32.1364V32.9091C130.511 33.5682 130.624 34.1269 130.852 34.5852C131.083 35.0398 131.403 35.3864 131.812 35.625C132.221 35.8598 132.696 35.9773 133.238 35.9773C133.59 35.9773 133.908 35.928 134.192 35.8295C134.48 35.7273 134.728 35.5758 134.937 35.375C135.145 35.1705 135.306 34.9167 135.42 34.6136L136.715 34.9773C136.579 35.4167 136.35 35.803 136.028 36.1364C135.706 36.4659 135.308 36.7235 134.835 36.9091C134.361 37.0909 133.829 37.1818 133.238 37.1818ZM145.073 30.2273L143.869 30.5682C143.793 30.3674 143.681 30.1723 143.533 29.983C143.389 29.7898 143.192 29.6307 142.942 29.5057C142.692 29.3807 142.372 29.3182 141.982 29.3182C141.448 29.3182 141.003 29.4413 140.647 29.6875C140.295 29.9299 140.119 30.2386 140.119 30.6136C140.119 30.947 140.24 31.2102 140.482 31.4034C140.725 31.5966 141.103 31.7576 141.619 31.8864L142.914 32.2045C143.694 32.3939 144.276 32.6837 144.658 33.0739C145.041 33.4602 145.232 33.9583 145.232 34.5682C145.232 35.0682 145.088 35.5152 144.8 35.9091C144.516 36.303 144.119 36.6136 143.607 36.8409C143.096 37.0682 142.501 37.1818 141.823 37.1818C140.933 37.1818 140.196 36.9886 139.613 36.6023C139.03 36.2159 138.66 35.6515 138.505 34.9091L139.778 34.5909C139.899 35.0606 140.128 35.4129 140.465 35.6477C140.806 35.8826 141.251 36 141.8 36C142.425 36 142.922 35.8674 143.289 35.6023C143.66 35.3333 143.846 35.0114 143.846 34.6364C143.846 34.3333 143.74 34.0795 143.528 33.875C143.316 33.6667 142.99 33.5114 142.55 33.4091L141.096 33.0682C140.297 32.8788 139.71 32.5852 139.335 32.1875C138.963 31.786 138.778 31.2841 138.778 30.6818C138.778 30.1894 138.916 29.7538 139.192 29.375C139.473 28.9962 139.853 28.6989 140.335 28.483C140.819 28.267 141.369 28.1591 141.982 28.1591C142.846 28.1591 143.524 28.3485 144.016 28.7273C144.513 29.1061 144.865 29.6061 145.073 30.2273ZM150.796 37.1818C149.978 37.1818 149.273 36.9886 148.683 36.6023C148.092 36.2159 147.637 35.6837 147.319 35.0057C147.001 34.3277 146.842 33.553 146.842 32.6818C146.842 31.7955 147.004 31.0133 147.33 30.3352C147.66 29.6534 148.118 29.1212 148.705 28.7386C149.296 28.3523 149.986 28.1591 150.773 28.1591C151.387 28.1591 151.94 28.2727 152.433 28.5C152.925 28.7273 153.328 29.0455 153.643 29.4545C153.957 29.8636 154.152 30.3409 154.228 30.8864H152.887C152.785 30.4886 152.558 30.1364 152.205 29.8295C151.857 29.5189 151.387 29.3636 150.796 29.3636C150.273 29.3636 149.815 29.5 149.421 29.7727C149.031 30.0417 148.726 30.4223 148.506 30.9148C148.29 31.4034 148.183 31.9773 148.183 32.6364C148.183 33.3106 148.289 33.8977 148.501 34.3977C148.717 34.8977 149.02 35.286 149.41 35.5625C149.804 35.839 150.266 35.9773 150.796 35.9773C151.145 35.9773 151.461 35.9167 151.745 35.7955C152.029 35.6742 152.27 35.5 152.467 35.2727C152.664 35.0455 152.804 34.7727 152.887 34.4545H154.228C154.152 34.9697 153.965 35.4337 153.665 35.8466C153.37 36.2557 152.978 36.5814 152.489 36.8239C152.004 37.0625 151.44 37.1818 150.796 37.1818ZM156.188 37V28.2727H157.484V29.5909H157.575C157.734 29.1591 158.022 28.8087 158.438 28.5398C158.855 28.2708 159.325 28.1364 159.847 28.1364C159.946 28.1364 160.069 28.1383 160.217 28.142C160.364 28.1458 160.476 28.1515 160.552 28.1591V29.5227C160.506 29.5114 160.402 29.4943 160.239 29.4716C160.08 29.4451 159.912 29.4318 159.734 29.4318C159.309 29.4318 158.931 29.5208 158.597 29.6989C158.268 29.8731 158.006 30.1155 157.813 30.4261C157.624 30.733 157.529 31.0833 157.529 31.4773V37H156.188ZM162.141 37V28.2727H163.482V37H162.141ZM162.823 26.8182C162.562 26.8182 162.336 26.7292 162.147 26.5511C161.961 26.3731 161.869 26.1591 161.869 25.9091C161.869 25.6591 161.961 25.4451 162.147 25.267C162.336 25.089 162.562 25 162.823 25C163.085 25 163.308 25.089 163.494 25.267C163.683 25.4451 163.778 25.6591 163.778 25.9091C163.778 26.1591 163.683 26.3731 163.494 26.5511C163.308 26.7292 163.085 26.8182 162.823 26.8182ZM165.938 40.2727V28.2727H167.234V29.6591H167.393C167.491 29.5076 167.628 29.3144 167.802 29.0795C167.98 28.8409 168.234 28.6288 168.563 28.4432C168.897 28.2538 169.347 28.1591 169.915 28.1591C170.65 28.1591 171.298 28.3428 171.859 28.7102C172.419 29.0777 172.857 29.5985 173.171 30.2727C173.486 30.947 173.643 31.7424 173.643 32.6591C173.643 33.5833 173.486 34.3845 173.171 35.0625C172.857 35.7367 172.421 36.2595 171.864 36.6307C171.308 36.9981 170.665 37.1818 169.938 37.1818C169.378 37.1818 168.929 37.089 168.592 36.9034C168.254 36.714 167.995 36.5 167.813 36.2614C167.631 36.0189 167.491 35.8182 167.393 35.6591H167.279V40.2727H165.938ZM167.256 32.6364C167.256 33.2955 167.353 33.8769 167.546 34.3807C167.739 34.8807 168.022 35.2727 168.393 35.5568C168.764 35.8371 169.219 35.9773 169.756 35.9773C170.317 35.9773 170.785 35.8295 171.16 35.5341C171.539 35.2348 171.823 34.8333 172.012 34.3295C172.205 33.822 172.302 33.2576 172.302 32.6364C172.302 32.0227 172.207 31.4697 172.018 30.9773C171.832 30.4811 171.55 30.089 171.171 29.8011C170.796 29.5095 170.325 29.3636 169.756 29.3636C169.211 29.3636 168.753 29.5019 168.381 29.7784C168.01 30.0511 167.73 30.4337 167.54 30.9261C167.351 31.4148 167.256 31.9848 167.256 32.6364ZM179.484 28.2727V29.4091H174.961V28.2727H179.484ZM176.279 26.1818H177.62V34.5C177.62 34.8788 177.675 35.1629 177.785 35.3523C177.898 35.5379 178.042 35.6629 178.217 35.7273C178.395 35.7879 178.582 35.8182 178.779 35.8182C178.927 35.8182 179.048 35.8106 179.143 35.7955C179.237 35.7765 179.313 35.7614 179.37 35.75L179.643 36.9545C179.552 36.9886 179.425 37.0227 179.262 37.0568C179.099 37.0947 178.893 37.1136 178.643 37.1136C178.264 37.1136 177.893 37.0322 177.529 36.8693C177.169 36.7064 176.87 36.4583 176.631 36.125C176.397 35.7917 176.279 35.3712 176.279 34.8636V26.1818ZM184.952 37.1818C184.165 37.1818 183.473 36.9943 182.879 36.6193C182.288 36.2443 181.826 35.7197 181.492 35.0455C181.163 34.3712 180.998 33.5833 180.998 32.6818C180.998 31.7727 181.163 30.9792 181.492 30.3011C181.826 29.6231 182.288 29.0966 182.879 28.7216C183.473 28.3466 184.165 28.1591 184.952 28.1591C185.74 28.1591 186.43 28.3466 187.021 28.7216C187.615 29.0966 188.077 29.6231 188.407 30.3011C188.74 30.9792 188.907 31.7727 188.907 32.6818C188.907 33.5833 188.74 34.3712 188.407 35.0455C188.077 35.7197 187.615 36.2443 187.021 36.6193C186.43 36.9943 185.74 37.1818 184.952 37.1818ZM184.952 35.9773C185.551 35.9773 186.043 35.8239 186.43 35.517C186.816 35.2102 187.102 34.8068 187.288 34.3068C187.473 33.8068 187.566 33.2652 187.566 32.6818C187.566 32.0985 187.473 31.5549 187.288 31.0511C187.102 30.5473 186.816 30.1402 186.43 29.8295C186.043 29.5189 185.551 29.3636 184.952 29.3636C184.354 29.3636 183.862 29.5189 183.475 29.8295C183.089 30.1402 182.803 30.5473 182.617 31.0511C182.432 31.5549 182.339 32.0985 182.339 32.6818C182.339 33.2652 182.432 33.8068 182.617 34.3068C182.803 34.8068 183.089 35.2102 183.475 35.517C183.862 35.8239 184.354 35.9773 184.952 35.9773ZM194.477 40.4545C193.829 40.4545 193.272 40.3712 192.806 40.2045C192.34 40.0417 191.952 39.8258 191.641 39.5568C191.335 39.2917 191.09 39.0076 190.908 38.7045L191.977 37.9545C192.098 38.1136 192.251 38.2955 192.437 38.5C192.622 38.7083 192.876 38.8883 193.198 39.0398C193.524 39.1951 193.95 39.2727 194.477 39.2727C195.181 39.2727 195.763 39.1023 196.221 38.7614C196.679 38.4205 196.908 37.8864 196.908 37.1591V35.3864H196.795C196.696 35.5455 196.556 35.7424 196.374 35.9773C196.196 36.2083 195.939 36.4148 195.602 36.5966C195.268 36.7746 194.817 36.8636 194.249 36.8636C193.545 36.8636 192.912 36.697 192.352 36.3636C191.795 36.0303 191.353 35.5455 191.028 34.9091C190.706 34.2727 190.545 33.5 190.545 32.5909C190.545 31.697 190.702 30.9186 191.016 30.2557C191.331 29.589 191.768 29.0739 192.329 28.7102C192.889 28.3428 193.537 28.1591 194.272 28.1591C194.84 28.1591 195.291 28.2538 195.624 28.4432C195.961 28.6288 196.219 28.8409 196.397 29.0795C196.579 29.3144 196.719 29.5076 196.817 29.6591H196.954V28.2727H198.249V37.25C198.249 38 198.079 38.6098 197.738 39.0795C197.401 39.553 196.946 39.8996 196.374 40.1193C195.806 40.3428 195.174 40.4545 194.477 40.4545ZM194.431 35.6591C194.969 35.6591 195.424 35.536 195.795 35.2898C196.166 35.0436 196.448 34.6894 196.641 34.2273C196.835 33.7652 196.931 33.2121 196.931 32.5682C196.931 31.9394 196.836 31.3845 196.647 30.9034C196.458 30.4223 196.177 30.0455 195.806 29.7727C195.435 29.5 194.977 29.3636 194.431 29.3636C193.863 29.3636 193.389 29.5076 193.011 29.7955C192.636 30.0833 192.353 30.4697 192.164 30.9545C191.978 31.4394 191.886 31.9773 191.886 32.5682C191.886 33.1742 191.98 33.7102 192.17 34.1761C192.363 34.6383 192.647 35.0019 193.022 35.267C193.401 35.5284 193.871 35.6591 194.431 35.6591ZM200.704 37V28.2727H201.999V29.5909H202.09C202.249 29.1591 202.537 28.8087 202.954 28.5398C203.371 28.2708 203.84 28.1364 204.363 28.1364C204.461 28.1364 204.585 28.1383 204.732 28.142C204.88 28.1458 204.992 28.1515 205.067 28.1591V29.5227C205.022 29.5114 204.918 29.4943 204.755 29.4716C204.596 29.4451 204.427 29.4318 204.249 29.4318C203.825 29.4318 203.446 29.5208 203.113 29.6989C202.783 29.8731 202.522 30.1155 202.329 30.4261C202.139 30.733 202.045 31.0833 202.045 31.4773V37H200.704ZM209.225 37.2045C208.672 37.2045 208.17 37.1004 207.719 36.892C207.269 36.6799 206.911 36.375 206.646 35.9773C206.38 35.5758 206.248 35.0909 206.248 34.5227C206.248 34.0227 206.346 33.6174 206.543 33.3068C206.74 32.9924 207.004 32.7462 207.333 32.5682C207.663 32.3902 208.026 32.2576 208.424 32.1705C208.826 32.0795 209.229 32.0076 209.634 31.9545C210.165 31.8864 210.594 31.8352 210.924 31.8011C211.257 31.7633 211.5 31.7008 211.651 31.6136C211.807 31.5265 211.884 31.375 211.884 31.1591V31.1136C211.884 30.553 211.731 30.1174 211.424 29.8068C211.121 29.4962 210.661 29.3409 210.043 29.3409C209.403 29.3409 208.901 29.4811 208.538 29.7614C208.174 30.0417 207.918 30.3409 207.771 30.6591L206.498 30.2045C206.725 29.6742 207.028 29.2614 207.407 28.9659C207.79 28.6667 208.206 28.4583 208.657 28.3409C209.112 28.2197 209.558 28.1591 209.998 28.1591C210.278 28.1591 210.6 28.1932 210.964 28.2614C211.331 28.3258 211.685 28.4602 212.026 28.6648C212.371 28.8693 212.657 29.178 212.884 29.5909C213.112 30.0038 213.225 30.5568 213.225 31.25V37H211.884V35.8182H211.816C211.725 36.0076 211.574 36.2102 211.362 36.4261C211.149 36.642 210.867 36.8258 210.515 36.9773C210.163 37.1288 209.733 37.2045 209.225 37.2045ZM209.43 36C209.96 36 210.407 35.8958 210.771 35.6875C211.138 35.4792 211.415 35.2102 211.6 34.8807C211.79 34.5511 211.884 34.2045 211.884 33.8409V32.6136C211.827 32.6818 211.702 32.7443 211.509 32.8011C211.32 32.8542 211.1 32.9015 210.85 32.9432C210.604 32.9811 210.363 33.0152 210.129 33.0455C209.897 33.072 209.71 33.0947 209.566 33.1136C209.218 33.1591 208.892 33.233 208.589 33.3352C208.29 33.4337 208.047 33.5833 207.862 33.7841C207.68 33.9811 207.589 34.25 207.589 34.5909C207.589 35.0568 207.761 35.4091 208.106 35.6477C208.454 35.8826 208.896 36 209.43 36ZM219.559 28.2727V29.4091H214.854V28.2727H219.559ZM216.263 37V27.0682C216.263 26.5682 216.381 26.1515 216.616 25.8182C216.851 25.4848 217.156 25.2348 217.531 25.0682C217.906 24.9015 218.301 24.8182 218.718 24.8182C219.048 24.8182 219.317 24.8447 219.525 24.8977C219.733 24.9508 219.888 25 219.991 25.0455L219.604 26.2045C219.536 26.1818 219.442 26.1534 219.32 26.1193C219.203 26.0852 219.048 26.0682 218.854 26.0682C218.411 26.0682 218.091 26.1799 217.894 26.4034C217.701 26.6269 217.604 26.9545 217.604 27.3864V37H216.263ZM223.756 37.2045C223.203 37.2045 222.701 37.1004 222.251 36.892C221.8 36.6799 221.442 36.375 221.177 35.9773C220.912 35.5758 220.779 35.0909 220.779 34.5227C220.779 34.0227 220.878 33.6174 221.075 33.3068C221.272 32.9924 221.535 32.7462 221.864 32.5682C222.194 32.3902 222.558 32.2576 222.955 32.1705C223.357 32.0795 223.76 32.0076 224.165 31.9545C224.696 31.8864 225.126 31.8352 225.455 31.8011C225.789 31.7633 226.031 31.7008 226.183 31.6136C226.338 31.5265 226.415 31.375 226.415 31.1591V31.1136C226.415 30.553 226.262 30.1174 225.955 29.8068C225.652 29.4962 225.192 29.3409 224.575 29.3409C223.934 29.3409 223.433 29.4811 223.069 29.7614C222.705 30.0417 222.45 30.3409 222.302 30.6591L221.029 30.2045C221.256 29.6742 221.559 29.2614 221.938 28.9659C222.321 28.6667 222.737 28.4583 223.188 28.3409C223.643 28.2197 224.09 28.1591 224.529 28.1591C224.809 28.1591 225.131 28.1932 225.495 28.2614C225.862 28.3258 226.217 28.4602 226.558 28.6648C226.902 28.8693 227.188 29.178 227.415 29.5909C227.643 30.0038 227.756 30.5568 227.756 31.25V37H226.415V35.8182H226.347C226.256 36.0076 226.105 36.2102 225.893 36.4261C225.681 36.642 225.398 36.8258 225.046 36.9773C224.694 37.1288 224.264 37.2045 223.756 37.2045ZM223.961 36C224.491 36 224.938 35.8958 225.302 35.6875C225.669 35.4792 225.946 35.2102 226.131 34.8807C226.321 34.5511 226.415 34.2045 226.415 33.8409V32.6136C226.359 32.6818 226.234 32.7443 226.04 32.8011C225.851 32.8542 225.631 32.9015 225.381 32.9432C225.135 32.9811 224.895 33.0152 224.66 33.0455C224.429 33.072 224.241 33.0947 224.097 33.1136C223.749 33.1591 223.423 33.233 223.12 33.3352C222.821 33.4337 222.578 33.5833 222.393 33.7841C222.211 33.9811 222.12 34.25 222.12 34.5909C222.12 35.0568 222.292 35.4091 222.637 35.6477C222.986 35.8826 223.427 36 223.961 36ZM230.204 37V28.2727H231.499V29.5909H231.59C231.749 29.1591 232.037 28.8087 232.454 28.5398C232.871 28.2708 233.34 28.1364 233.863 28.1364C233.961 28.1364 234.085 28.1383 234.232 28.142C234.38 28.1458 234.492 28.1515 234.567 28.1591V29.5227C234.522 29.5114 234.418 29.4943 234.255 29.4716C234.096 29.4451 233.927 29.4318 233.749 29.4318C233.325 29.4318 232.946 29.5208 232.613 29.6989C232.283 29.8731 232.022 30.1155 231.829 30.4261C231.639 30.733 231.545 31.0833 231.545 31.4773V37H230.204ZM236.134 37.0909C235.854 37.0909 235.613 36.9905 235.413 36.7898C235.212 36.589 235.112 36.3485 235.112 36.0682C235.112 35.7879 235.212 35.5473 235.413 35.3466C235.613 35.1458 235.854 35.0455 236.134 35.0455C236.415 35.0455 236.655 35.1458 236.856 35.3466C237.057 35.5473 237.157 35.7879 237.157 36.0682C237.157 36.2538 237.11 36.4242 237.015 36.5795C236.924 36.7348 236.801 36.8598 236.646 36.9545C236.494 37.0455 236.324 37.0909 236.134 37.0909Z" fill="#495057"/>
</svg>
